<mxfile host="app.diagrams.net" agent="Mozilla/5.0 (Windows NT 10.0; Win64; x64) AppleWebKit/537.36 (KHTML, like Gecko) Chrome/128.0.0.0 YaBrowser/24.10.0.0 Safari/537.36" version="24.8.4" pages="6">
  <diagram name="Схема 5.CDN - Итоговое" id="9RY-ipqFQkX0Rwypfli7">
    <mxGraphModel dx="1763" dy="775" grid="1" gridSize="10" guides="1" tooltips="1" connect="1" arrows="1" fold="1" page="1" pageScale="1" pageWidth="827" pageHeight="1169" math="0" shadow="0">
      <root>
        <mxCell id="zyj9cvmnmt_Ec4w8JjRw-0" />
        <mxCell id="zyj9cvmnmt_Ec4w8JjRw-1" parent="zyj9cvmnmt_Ec4w8JjRw-0" />
        <mxCell id="zyj9cvmnmt_Ec4w8JjRw-2" value="&lt;h1 style=&quot;margin-top: 0px;&quot;&gt;Схема 5.&lt;/h1&gt;&lt;div&gt;CDN&lt;/div&gt;" style="text;html=1;whiteSpace=wrap;overflow=hidden;rounded=0;" vertex="1" parent="zyj9cvmnmt_Ec4w8JjRw-1">
          <mxGeometry x="30" y="20" width="120" height="90" as="geometry" />
        </mxCell>
        <mxCell id="zyj9cvmnmt_Ec4w8JjRw-4" value="" style="endArrow=none;html=1;rounded=0;exitX=0.25;exitY=0;exitDx=0;exitDy=0;" edge="1" parent="zyj9cvmnmt_Ec4w8JjRw-1" source="zyj9cvmnmt_Ec4w8JjRw-6">
          <mxGeometry width="50" height="50" relative="1" as="geometry">
            <mxPoint x="373" y="280" as="sourcePoint" />
            <mxPoint x="447" y="160" as="targetPoint" />
          </mxGeometry>
        </mxCell>
        <mxCell id="zyj9cvmnmt_Ec4w8JjRw-5" value="" style="endArrow=none;html=1;rounded=0;exitX=0.5;exitY=0;exitDx=0;exitDy=0;" edge="1" parent="zyj9cvmnmt_Ec4w8JjRw-1">
          <mxGeometry width="50" height="50" relative="1" as="geometry">
            <mxPoint x="483" y="190" as="sourcePoint" />
            <mxPoint x="483" y="160" as="targetPoint" />
          </mxGeometry>
        </mxCell>
        <mxCell id="zyj9cvmnmt_Ec4w8JjRw-6" value="pymongo-api" style="rounded=1;whiteSpace=wrap;html=1;" vertex="1" parent="zyj9cvmnmt_Ec4w8JjRw-1">
          <mxGeometry x="417" y="310" width="120" height="60" as="geometry" />
        </mxCell>
        <mxCell id="zyj9cvmnmt_Ec4w8JjRw-7" value="" style="rounded=0;whiteSpace=wrap;html=1;" vertex="1" parent="zyj9cvmnmt_Ec4w8JjRw-1">
          <mxGeometry x="863" y="480" width="230" height="180" as="geometry" />
        </mxCell>
        <mxCell id="zyj9cvmnmt_Ec4w8JjRw-8" value="" style="rounded=0;whiteSpace=wrap;html=1;" vertex="1" parent="zyj9cvmnmt_Ec4w8JjRw-1">
          <mxGeometry x="623" y="480" width="230" height="180" as="geometry" />
        </mxCell>
        <mxCell id="zyj9cvmnmt_Ec4w8JjRw-9" value="" style="endArrow=classic;html=1;rounded=0;" edge="1" parent="zyj9cvmnmt_Ec4w8JjRw-1">
          <mxGeometry width="50" height="50" relative="1" as="geometry">
            <mxPoint x="843" y="420" as="sourcePoint" />
            <mxPoint x="903" y="480" as="targetPoint" />
            <Array as="points">
              <mxPoint x="903" y="420" />
            </Array>
          </mxGeometry>
        </mxCell>
        <mxCell id="zyj9cvmnmt_Ec4w8JjRw-10" value="" style="endArrow=classic;html=1;rounded=0;" edge="1" parent="zyj9cvmnmt_Ec4w8JjRw-1">
          <mxGeometry width="50" height="50" relative="1" as="geometry">
            <mxPoint x="843" y="420" as="sourcePoint" />
            <mxPoint x="783" y="480" as="targetPoint" />
            <Array as="points">
              <mxPoint x="783" y="420" />
            </Array>
          </mxGeometry>
        </mxCell>
        <mxCell id="zyj9cvmnmt_Ec4w8JjRw-11" value="" style="endArrow=none;html=1;rounded=0;entryX=0.5;entryY=1;entryDx=0;entryDy=0;entryPerimeter=0;" edge="1" parent="zyj9cvmnmt_Ec4w8JjRw-1" target="zyj9cvmnmt_Ec4w8JjRw-16">
          <mxGeometry width="50" height="50" relative="1" as="geometry">
            <mxPoint x="843" y="420" as="sourcePoint" />
            <mxPoint x="933" y="350" as="targetPoint" />
          </mxGeometry>
        </mxCell>
        <mxCell id="zyj9cvmnmt_Ec4w8JjRw-12" value="MongoDB&lt;div&gt;master&lt;/div&gt;" style="shape=cylinder3;whiteSpace=wrap;html=1;boundedLbl=1;backgroundOutline=1;size=15;" vertex="1" parent="zyj9cvmnmt_Ec4w8JjRw-1">
          <mxGeometry x="698" y="490" width="80" height="70" as="geometry" />
        </mxCell>
        <mxCell id="zyj9cvmnmt_Ec4w8JjRw-13" value="&lt;span style=&quot;color: rgba(0, 0, 0, 0.85); font-family: Menlo, &amp;quot;Ubuntu Mono&amp;quot;, consolas, source-code-pro, monospace; font-size: 14px; text-align: start; white-space: pre; background-color: rgb(245, 245, 245);&quot;&gt;shard1&lt;/span&gt;" style="text;html=1;align=center;verticalAlign=middle;whiteSpace=wrap;rounded=0;shadow=1;fillColor=#f5f5f5;fontColor=#333333;strokeColor=#666666;" vertex="1" parent="zyj9cvmnmt_Ec4w8JjRw-1">
          <mxGeometry x="623" y="630" width="100" height="30" as="geometry" />
        </mxCell>
        <mxCell id="zyj9cvmnmt_Ec4w8JjRw-14" value="mongos_router" style="text;html=1;align=center;verticalAlign=middle;whiteSpace=wrap;rounded=0;shadow=1;fillColor=#f5f5f5;fontColor=#333333;strokeColor=#666666;" vertex="1" parent="zyj9cvmnmt_Ec4w8JjRw-1">
          <mxGeometry x="793" y="268" width="100" height="30" as="geometry" />
        </mxCell>
        <mxCell id="zyj9cvmnmt_Ec4w8JjRw-15" style="edgeStyle=orthogonalEdgeStyle;rounded=0;orthogonalLoop=1;jettySize=auto;html=1;entryX=0;entryY=0.5;entryDx=0;entryDy=0;entryPerimeter=0;" edge="1" parent="zyj9cvmnmt_Ec4w8JjRw-1">
          <mxGeometry relative="1" as="geometry">
            <mxPoint x="813" y="340" as="targetPoint" />
            <mxPoint x="603" y="340" as="sourcePoint" />
          </mxGeometry>
        </mxCell>
        <mxCell id="zyj9cvmnmt_Ec4w8JjRw-16" value="MongoDB" style="shape=cylinder3;whiteSpace=wrap;html=1;boundedLbl=1;backgroundOutline=1;size=15;" vertex="1" parent="zyj9cvmnmt_Ec4w8JjRw-1">
          <mxGeometry x="813" y="300" width="60" height="80" as="geometry" />
        </mxCell>
        <mxCell id="zyj9cvmnmt_Ec4w8JjRw-17" value="&lt;span style=&quot;color: rgba(0, 0, 0, 0.85); font-family: Menlo, &amp;quot;Ubuntu Mono&amp;quot;, consolas, source-code-pro, monospace; font-size: 14px; text-align: start; white-space: pre; background-color: rgb(245, 245, 245);&quot;&gt;shard2&lt;/span&gt;" style="text;html=1;align=center;verticalAlign=middle;whiteSpace=wrap;rounded=0;shadow=1;fillColor=#f5f5f5;fontColor=#333333;strokeColor=#666666;" vertex="1" parent="zyj9cvmnmt_Ec4w8JjRw-1">
          <mxGeometry x="993" y="630" width="100" height="30" as="geometry" />
        </mxCell>
        <mxCell id="zyj9cvmnmt_Ec4w8JjRw-18" value="&lt;span style=&quot;color: rgba(0, 0, 0, 0.85); font-family: Menlo, &amp;quot;Ubuntu Mono&amp;quot;, consolas, source-code-pro, monospace; font-size: 14px; text-align: start; white-space: pre; background-color: rgb(245, 245, 245);&quot;&gt;configSrv&lt;/span&gt;" style="text;html=1;align=center;verticalAlign=middle;whiteSpace=wrap;rounded=0;shadow=1;fillColor=#f5f5f5;fontColor=#333333;strokeColor=#666666;" vertex="1" parent="zyj9cvmnmt_Ec4w8JjRw-1">
          <mxGeometry x="973" y="268" width="100" height="30" as="geometry" />
        </mxCell>
        <mxCell id="zyj9cvmnmt_Ec4w8JjRw-19" value="MongoDB" style="shape=cylinder3;whiteSpace=wrap;html=1;boundedLbl=1;backgroundOutline=1;size=15;" vertex="1" parent="zyj9cvmnmt_Ec4w8JjRw-1">
          <mxGeometry x="993" y="300" width="60" height="80" as="geometry" />
        </mxCell>
        <mxCell id="zyj9cvmnmt_Ec4w8JjRw-20" value="" style="endArrow=classic;html=1;rounded=0;exitX=1;exitY=0.5;exitDx=0;exitDy=0;exitPerimeter=0;entryX=0;entryY=0.5;entryDx=0;entryDy=0;entryPerimeter=0;" edge="1" parent="zyj9cvmnmt_Ec4w8JjRw-1" source="zyj9cvmnmt_Ec4w8JjRw-16" target="zyj9cvmnmt_Ec4w8JjRw-19">
          <mxGeometry width="50" height="50" relative="1" as="geometry">
            <mxPoint x="973" y="430" as="sourcePoint" />
            <mxPoint x="1023" y="380" as="targetPoint" />
          </mxGeometry>
        </mxCell>
        <mxCell id="zyj9cvmnmt_Ec4w8JjRw-21" value="" style="endArrow=none;html=1;rounded=0;" edge="1" parent="zyj9cvmnmt_Ec4w8JjRw-1">
          <mxGeometry width="50" height="50" relative="1" as="geometry">
            <mxPoint x="783" y="660" as="sourcePoint" />
            <mxPoint x="783" y="720" as="targetPoint" />
          </mxGeometry>
        </mxCell>
        <mxCell id="zyj9cvmnmt_Ec4w8JjRw-22" value="" style="endArrow=none;html=1;rounded=0;entryX=0.174;entryY=0.998;entryDx=0;entryDy=0;entryPerimeter=0;" edge="1" parent="zyj9cvmnmt_Ec4w8JjRw-1" target="zyj9cvmnmt_Ec4w8JjRw-7">
          <mxGeometry width="50" height="50" relative="1" as="geometry">
            <mxPoint x="903" y="720" as="sourcePoint" />
            <mxPoint x="1023" y="580" as="targetPoint" />
          </mxGeometry>
        </mxCell>
        <mxCell id="zyj9cvmnmt_Ec4w8JjRw-23" value="" style="endArrow=none;html=1;rounded=0;" edge="1" parent="zyj9cvmnmt_Ec4w8JjRw-1">
          <mxGeometry width="50" height="50" relative="1" as="geometry">
            <mxPoint x="783" y="720" as="sourcePoint" />
            <mxPoint x="903" y="720" as="targetPoint" />
          </mxGeometry>
        </mxCell>
        <mxCell id="zyj9cvmnmt_Ec4w8JjRw-24" value="" style="endArrow=classic;html=1;rounded=0;entryX=0.5;entryY=1;entryDx=0;entryDy=0;entryPerimeter=0;" edge="1" parent="zyj9cvmnmt_Ec4w8JjRw-1" target="zyj9cvmnmt_Ec4w8JjRw-19">
          <mxGeometry width="50" height="50" relative="1" as="geometry">
            <mxPoint x="833" y="720" as="sourcePoint" />
            <mxPoint x="1233" y="470" as="targetPoint" />
            <Array as="points">
              <mxPoint x="833" y="840" />
              <mxPoint x="1143" y="840" />
              <mxPoint x="1143" y="450" />
              <mxPoint x="1023" y="450" />
            </Array>
          </mxGeometry>
        </mxCell>
        <mxCell id="zyj9cvmnmt_Ec4w8JjRw-25" value="MongoDB&lt;div&gt;slave&lt;/div&gt;" style="shape=cylinder3;whiteSpace=wrap;html=1;boundedLbl=1;backgroundOutline=1;size=15;" vertex="1" parent="zyj9cvmnmt_Ec4w8JjRw-1">
          <mxGeometry x="633" y="555" width="80" height="70" as="geometry" />
        </mxCell>
        <mxCell id="zyj9cvmnmt_Ec4w8JjRw-26" value="MongoDB&lt;div&gt;slave&lt;br&gt;&lt;/div&gt;" style="shape=cylinder3;whiteSpace=wrap;html=1;boundedLbl=1;backgroundOutline=1;size=15;" vertex="1" parent="zyj9cvmnmt_Ec4w8JjRw-1">
          <mxGeometry x="763" y="558" width="80" height="70" as="geometry" />
        </mxCell>
        <mxCell id="zyj9cvmnmt_Ec4w8JjRw-27" value="MongoDB&lt;div&gt;master&lt;/div&gt;" style="shape=cylinder3;whiteSpace=wrap;html=1;boundedLbl=1;backgroundOutline=1;size=15;" vertex="1" parent="zyj9cvmnmt_Ec4w8JjRw-1">
          <mxGeometry x="938" y="490" width="80" height="70" as="geometry" />
        </mxCell>
        <mxCell id="zyj9cvmnmt_Ec4w8JjRw-28" value="MongoDB&lt;div&gt;slave&lt;/div&gt;" style="shape=cylinder3;whiteSpace=wrap;html=1;boundedLbl=1;backgroundOutline=1;size=15;" vertex="1" parent="zyj9cvmnmt_Ec4w8JjRw-1">
          <mxGeometry x="873" y="555" width="80" height="70" as="geometry" />
        </mxCell>
        <mxCell id="zyj9cvmnmt_Ec4w8JjRw-29" value="MongoDB&lt;div&gt;slave&lt;br&gt;&lt;/div&gt;" style="shape=cylinder3;whiteSpace=wrap;html=1;boundedLbl=1;backgroundOutline=1;size=15;" vertex="1" parent="zyj9cvmnmt_Ec4w8JjRw-1">
          <mxGeometry x="1003" y="555" width="80" height="70" as="geometry" />
        </mxCell>
        <mxCell id="zyj9cvmnmt_Ec4w8JjRw-30" value="" style="endArrow=classic;html=1;rounded=0;" edge="1" parent="zyj9cvmnmt_Ec4w8JjRw-1" target="zyj9cvmnmt_Ec4w8JjRw-31">
          <mxGeometry width="50" height="50" relative="1" as="geometry">
            <mxPoint x="753" y="340" as="sourcePoint" />
            <mxPoint x="753" y="270" as="targetPoint" />
          </mxGeometry>
        </mxCell>
        <mxCell id="zyj9cvmnmt_Ec4w8JjRw-31" value="Redis" style="shape=cylinder3;whiteSpace=wrap;html=1;boundedLbl=1;backgroundOutline=1;size=15;" vertex="1" parent="zyj9cvmnmt_Ec4w8JjRw-1">
          <mxGeometry x="723" y="210" width="60" height="58" as="geometry" />
        </mxCell>
        <mxCell id="zyj9cvmnmt_Ec4w8JjRw-32" value="" style="endArrow=classic;html=1;rounded=0;entryX=0.5;entryY=1;entryDx=0;entryDy=0;entryPerimeter=0;" edge="1" parent="zyj9cvmnmt_Ec4w8JjRw-1" target="zyj9cvmnmt_Ec4w8JjRw-27">
          <mxGeometry width="50" height="50" relative="1" as="geometry">
            <mxPoint x="978" y="600" as="sourcePoint" />
            <mxPoint x="993" y="590" as="targetPoint" />
          </mxGeometry>
        </mxCell>
        <mxCell id="zyj9cvmnmt_Ec4w8JjRw-33" value="" style="endArrow=classic;startArrow=classic;html=1;rounded=0;exitX=1.001;exitY=0.559;exitDx=0;exitDy=0;exitPerimeter=0;entryX=-0.009;entryY=0.573;entryDx=0;entryDy=0;entryPerimeter=0;" edge="1" parent="zyj9cvmnmt_Ec4w8JjRw-1">
          <mxGeometry width="50" height="50" relative="1" as="geometry">
            <mxPoint x="953.0799999999999" y="599.13" as="sourcePoint" />
            <mxPoint x="1002.28" y="600.11" as="targetPoint" />
          </mxGeometry>
        </mxCell>
        <mxCell id="zyj9cvmnmt_Ec4w8JjRw-34" value="" style="group" connectable="0" vertex="1" parent="zyj9cvmnmt_Ec4w8JjRw-1">
          <mxGeometry x="713.8" y="560" width="49.200000000000045" height="40.110000000000014" as="geometry" />
        </mxCell>
        <mxCell id="zyj9cvmnmt_Ec4w8JjRw-35" value="" style="endArrow=classic;html=1;rounded=0;entryX=0.5;entryY=1;entryDx=0;entryDy=0;entryPerimeter=0;" edge="1" parent="zyj9cvmnmt_Ec4w8JjRw-34">
          <mxGeometry width="50" height="50" relative="1" as="geometry">
            <mxPoint x="24.920000000000073" y="40" as="sourcePoint" />
            <mxPoint x="24.920000000000073" as="targetPoint" />
          </mxGeometry>
        </mxCell>
        <mxCell id="zyj9cvmnmt_Ec4w8JjRw-36" value="" style="endArrow=classic;startArrow=classic;html=1;rounded=0;exitX=1.001;exitY=0.559;exitDx=0;exitDy=0;exitPerimeter=0;entryX=-0.009;entryY=0.573;entryDx=0;entryDy=0;entryPerimeter=0;" edge="1" parent="zyj9cvmnmt_Ec4w8JjRw-34">
          <mxGeometry width="50" height="50" relative="1" as="geometry">
            <mxPoint y="39.129999999999995" as="sourcePoint" />
            <mxPoint x="49.200000000000045" y="40.110000000000014" as="targetPoint" />
          </mxGeometry>
        </mxCell>
        <mxCell id="zyj9cvmnmt_Ec4w8JjRw-37" value="pymongo-api" style="rounded=1;whiteSpace=wrap;html=1;" vertex="1" parent="zyj9cvmnmt_Ec4w8JjRw-1">
          <mxGeometry x="417" y="190" width="120" height="60" as="geometry" />
        </mxCell>
        <mxCell id="zyj9cvmnmt_Ec4w8JjRw-38" value="" style="endArrow=none;html=1;rounded=0;exitX=1;exitY=0.5;exitDx=0;exitDy=0;" edge="1" parent="zyj9cvmnmt_Ec4w8JjRw-1" source="zyj9cvmnmt_Ec4w8JjRw-37">
          <mxGeometry width="50" height="50" relative="1" as="geometry">
            <mxPoint x="753" y="410" as="sourcePoint" />
            <mxPoint x="603" y="220" as="targetPoint" />
          </mxGeometry>
        </mxCell>
        <mxCell id="zyj9cvmnmt_Ec4w8JjRw-39" value="" style="endArrow=none;html=1;rounded=0;" edge="1" parent="zyj9cvmnmt_Ec4w8JjRw-1">
          <mxGeometry width="50" height="50" relative="1" as="geometry">
            <mxPoint x="603" y="220" as="sourcePoint" />
            <mxPoint x="603" y="340" as="targetPoint" />
          </mxGeometry>
        </mxCell>
        <mxCell id="zyj9cvmnmt_Ec4w8JjRw-40" value="" style="endArrow=none;html=1;rounded=0;exitX=1;exitY=0.5;exitDx=0;exitDy=0;" edge="1" parent="zyj9cvmnmt_Ec4w8JjRw-1" source="zyj9cvmnmt_Ec4w8JjRw-6">
          <mxGeometry width="50" height="50" relative="1" as="geometry">
            <mxPoint x="753" y="410" as="sourcePoint" />
            <mxPoint x="603" y="340" as="targetPoint" />
          </mxGeometry>
        </mxCell>
        <mxCell id="zyj9cvmnmt_Ec4w8JjRw-41" value="User&lt;div&gt;Регион 2&lt;/div&gt;&lt;div&gt;&lt;br&gt;&lt;/div&gt;" style="shape=umlActor;verticalLabelPosition=bottom;verticalAlign=top;html=1;outlineConnect=0;" vertex="1" parent="zyj9cvmnmt_Ec4w8JjRw-1">
          <mxGeometry x="23" y="238" width="30" height="60" as="geometry" />
        </mxCell>
        <mxCell id="zyj9cvmnmt_Ec4w8JjRw-42" value="Сайт" style="rounded=1;whiteSpace=wrap;html=1;" vertex="1" parent="zyj9cvmnmt_Ec4w8JjRw-1">
          <mxGeometry x="83" y="248" width="120" height="40" as="geometry" />
        </mxCell>
        <mxCell id="zyj9cvmnmt_Ec4w8JjRw-43" value="" style="endArrow=classic;html=1;rounded=0;entryX=0;entryY=0.5;entryDx=0;entryDy=0;" edge="1" parent="zyj9cvmnmt_Ec4w8JjRw-1" source="zyj9cvmnmt_Ec4w8JjRw-41" target="zyj9cvmnmt_Ec4w8JjRw-42">
          <mxGeometry width="50" height="50" relative="1" as="geometry">
            <mxPoint x="473" y="230" as="sourcePoint" />
            <mxPoint x="523" y="180" as="targetPoint" />
          </mxGeometry>
        </mxCell>
        <mxCell id="zyj9cvmnmt_Ec4w8JjRw-44" value="API Gateway" style="rounded=1;whiteSpace=wrap;html=1;" vertex="1" parent="zyj9cvmnmt_Ec4w8JjRw-1">
          <mxGeometry x="243" y="238" width="120" height="60" as="geometry" />
        </mxCell>
        <mxCell id="zyj9cvmnmt_Ec4w8JjRw-45" value="" style="endArrow=classic;html=1;rounded=0;exitX=1;exitY=0.5;exitDx=0;exitDy=0;entryX=0;entryY=0.5;entryDx=0;entryDy=0;" edge="1" parent="zyj9cvmnmt_Ec4w8JjRw-1" source="zyj9cvmnmt_Ec4w8JjRw-42" target="zyj9cvmnmt_Ec4w8JjRw-44">
          <mxGeometry width="50" height="50" relative="1" as="geometry">
            <mxPoint x="303" y="300" as="sourcePoint" />
            <mxPoint x="353" y="250" as="targetPoint" />
          </mxGeometry>
        </mxCell>
        <mxCell id="zyj9cvmnmt_Ec4w8JjRw-46" value="consul_kv" style="rounded=1;whiteSpace=wrap;html=1;" vertex="1" parent="zyj9cvmnmt_Ec4w8JjRw-1">
          <mxGeometry x="293" y="224" width="80" height="30" as="geometry" />
        </mxCell>
        <mxCell id="zyj9cvmnmt_Ec4w8JjRw-47" value="Consul" style="rounded=1;whiteSpace=wrap;html=1;" vertex="1" parent="zyj9cvmnmt_Ec4w8JjRw-1">
          <mxGeometry x="243" y="130" width="120" height="60" as="geometry" />
        </mxCell>
        <mxCell id="zyj9cvmnmt_Ec4w8JjRw-48" value="" style="endArrow=classic;html=1;rounded=0;exitX=0.5;exitY=0;exitDx=0;exitDy=0;" edge="1" parent="zyj9cvmnmt_Ec4w8JjRw-1" source="zyj9cvmnmt_Ec4w8JjRw-46">
          <mxGeometry width="50" height="50" relative="1" as="geometry">
            <mxPoint x="283" y="240" as="sourcePoint" />
            <mxPoint x="333" y="190" as="targetPoint" />
          </mxGeometry>
        </mxCell>
        <mxCell id="zyj9cvmnmt_Ec4w8JjRw-49" value="get a list of services" style="text;html=1;align=center;verticalAlign=middle;whiteSpace=wrap;rounded=0;shadow=0;fontSize=7;fillColor=default;" vertex="1" parent="zyj9cvmnmt_Ec4w8JjRw-1">
          <mxGeometry x="298.5" y="207" width="75" height="10" as="geometry" />
        </mxCell>
        <mxCell id="zyj9cvmnmt_Ec4w8JjRw-50" value="" style="endArrow=none;html=1;rounded=0;entryX=0;entryY=0.5;entryDx=0;entryDy=0;" edge="1" parent="zyj9cvmnmt_Ec4w8JjRw-1" target="zyj9cvmnmt_Ec4w8JjRw-37">
          <mxGeometry width="50" height="50" relative="1" as="geometry">
            <mxPoint x="393" y="220" as="sourcePoint" />
            <mxPoint x="383" y="210" as="targetPoint" />
          </mxGeometry>
        </mxCell>
        <mxCell id="zyj9cvmnmt_Ec4w8JjRw-51" value="" style="endArrow=none;html=1;rounded=0;entryX=0;entryY=0.5;entryDx=0;entryDy=0;" edge="1" parent="zyj9cvmnmt_Ec4w8JjRw-1" target="zyj9cvmnmt_Ec4w8JjRw-6">
          <mxGeometry width="50" height="50" relative="1" as="geometry">
            <mxPoint x="393" y="340" as="sourcePoint" />
            <mxPoint x="383" y="210" as="targetPoint" />
          </mxGeometry>
        </mxCell>
        <mxCell id="zyj9cvmnmt_Ec4w8JjRw-52" value="" style="endArrow=none;html=1;rounded=0;" edge="1" parent="zyj9cvmnmt_Ec4w8JjRw-1">
          <mxGeometry width="50" height="50" relative="1" as="geometry">
            <mxPoint x="393" y="220" as="sourcePoint" />
            <mxPoint x="393" y="340" as="targetPoint" />
          </mxGeometry>
        </mxCell>
        <mxCell id="zyj9cvmnmt_Ec4w8JjRw-53" value="" style="endArrow=none;html=1;rounded=0;exitX=1;exitY=0.5;exitDx=0;exitDy=0;" edge="1" parent="zyj9cvmnmt_Ec4w8JjRw-1" source="zyj9cvmnmt_Ec4w8JjRw-44">
          <mxGeometry width="50" height="50" relative="1" as="geometry">
            <mxPoint x="523" y="300" as="sourcePoint" />
            <mxPoint x="393" y="268" as="targetPoint" />
          </mxGeometry>
        </mxCell>
        <mxCell id="zyj9cvmnmt_Ec4w8JjRw-54" value="" style="endArrow=classic;html=1;rounded=0;" edge="1" parent="zyj9cvmnmt_Ec4w8JjRw-1">
          <mxGeometry width="50" height="50" relative="1" as="geometry">
            <mxPoint x="483" y="160" as="sourcePoint" />
            <mxPoint x="363" y="160" as="targetPoint" />
          </mxGeometry>
        </mxCell>
        <mxCell id="zyj9cvmnmt_Ec4w8JjRw-55" value="register" style="text;html=1;align=center;verticalAlign=middle;whiteSpace=wrap;rounded=0;shadow=0;fontSize=7;fillColor=default;" vertex="1" parent="zyj9cvmnmt_Ec4w8JjRw-1">
          <mxGeometry x="403" y="155" width="35" height="10" as="geometry" />
        </mxCell>
        <mxCell id="YF30UYbHdNqfojSDqpkw-0" value="source server" style="rounded=1;whiteSpace=wrap;html=1;" vertex="1" parent="zyj9cvmnmt_Ec4w8JjRw-1">
          <mxGeometry x="83" y="550" width="120" height="30" as="geometry" />
        </mxCell>
        <mxCell id="YF30UYbHdNqfojSDqpkw-164" value="CDN" style="rounded=1;whiteSpace=wrap;html=1;" vertex="1" parent="zyj9cvmnmt_Ec4w8JjRw-1">
          <mxGeometry x="23" y="430" width="70" height="20" as="geometry" />
        </mxCell>
        <mxCell id="YF30UYbHdNqfojSDqpkw-166" value="CDN" style="rounded=1;whiteSpace=wrap;html=1;" vertex="1" parent="zyj9cvmnmt_Ec4w8JjRw-1">
          <mxGeometry x="205" y="430" width="70" height="20" as="geometry" />
        </mxCell>
        <mxCell id="YF30UYbHdNqfojSDqpkw-167" value="регион 1" style="text;html=1;align=center;verticalAlign=middle;whiteSpace=wrap;rounded=0;" vertex="1" parent="zyj9cvmnmt_Ec4w8JjRw-1">
          <mxGeometry x="246" y="407" width="60" height="30" as="geometry" />
        </mxCell>
        <mxCell id="YF30UYbHdNqfojSDqpkw-168" value="регион 2" style="text;html=1;align=center;verticalAlign=middle;whiteSpace=wrap;rounded=0;" vertex="1" parent="zyj9cvmnmt_Ec4w8JjRw-1">
          <mxGeometry y="408" width="60" height="30" as="geometry" />
        </mxCell>
        <mxCell id="YF30UYbHdNqfojSDqpkw-169" value="" style="endArrow=none;html=1;rounded=0;exitX=0.5;exitY=0;exitDx=0;exitDy=0;" edge="1" parent="zyj9cvmnmt_Ec4w8JjRw-1" source="YF30UYbHdNqfojSDqpkw-0">
          <mxGeometry width="50" height="50" relative="1" as="geometry">
            <mxPoint x="250" y="450" as="sourcePoint" />
            <mxPoint x="143" y="520" as="targetPoint" />
          </mxGeometry>
        </mxCell>
        <mxCell id="YF30UYbHdNqfojSDqpkw-170" value="" style="endArrow=none;html=1;rounded=0;" edge="1" parent="zyj9cvmnmt_Ec4w8JjRw-1">
          <mxGeometry width="50" height="50" relative="1" as="geometry">
            <mxPoint x="60" y="520" as="sourcePoint" />
            <mxPoint x="240" y="520" as="targetPoint" />
          </mxGeometry>
        </mxCell>
        <mxCell id="YF30UYbHdNqfojSDqpkw-171" value="" style="endArrow=classic;html=1;rounded=0;entryX=0.5;entryY=1;entryDx=0;entryDy=0;" edge="1" parent="zyj9cvmnmt_Ec4w8JjRw-1" target="YF30UYbHdNqfojSDqpkw-166">
          <mxGeometry width="50" height="50" relative="1" as="geometry">
            <mxPoint x="240" y="520" as="sourcePoint" />
            <mxPoint x="240" y="400" as="targetPoint" />
          </mxGeometry>
        </mxCell>
        <mxCell id="YF30UYbHdNqfojSDqpkw-172" value="" style="endArrow=classic;html=1;rounded=0;entryX=0.5;entryY=1;entryDx=0;entryDy=0;" edge="1" parent="zyj9cvmnmt_Ec4w8JjRw-1">
          <mxGeometry width="50" height="50" relative="1" as="geometry">
            <mxPoint x="60" y="520" as="sourcePoint" />
            <mxPoint x="60" y="450" as="targetPoint" />
          </mxGeometry>
        </mxCell>
        <mxCell id="YF30UYbHdNqfojSDqpkw-173" value="User&lt;div&gt;Регион 1&lt;/div&gt;" style="shape=umlActor;verticalLabelPosition=bottom;verticalAlign=top;html=1;outlineConnect=0;" vertex="1" parent="zyj9cvmnmt_Ec4w8JjRw-1">
          <mxGeometry x="23" y="130" width="30" height="60" as="geometry" />
        </mxCell>
        <mxCell id="YF30UYbHdNqfojSDqpkw-174" value="" style="endArrow=classic;html=1;rounded=0;entryX=0.477;entryY=-0.058;entryDx=0;entryDy=0;entryPerimeter=0;" edge="1" parent="zyj9cvmnmt_Ec4w8JjRw-1" source="YF30UYbHdNqfojSDqpkw-173" target="zyj9cvmnmt_Ec4w8JjRw-42">
          <mxGeometry width="50" height="50" relative="1" as="geometry">
            <mxPoint x="390" y="290" as="sourcePoint" />
            <mxPoint x="440" y="240" as="targetPoint" />
            <Array as="points">
              <mxPoint x="140" y="160" />
            </Array>
          </mxGeometry>
        </mxCell>
        <mxCell id="YF30UYbHdNqfojSDqpkw-177" value="" style="endArrow=classic;html=1;rounded=0;entryX=0.25;entryY=1;entryDx=0;entryDy=0;exitX=0.6;exitY=-0.1;exitDx=0;exitDy=0;exitPerimeter=0;" edge="1" parent="zyj9cvmnmt_Ec4w8JjRw-1" source="YF30UYbHdNqfojSDqpkw-164" target="zyj9cvmnmt_Ec4w8JjRw-42">
          <mxGeometry width="50" height="50" relative="1" as="geometry">
            <mxPoint x="80" y="420" as="sourcePoint" />
            <mxPoint x="370" y="250" as="targetPoint" />
            <Array as="points">
              <mxPoint x="65" y="360" />
              <mxPoint x="113" y="360" />
            </Array>
          </mxGeometry>
        </mxCell>
        <mxCell id="YF30UYbHdNqfojSDqpkw-178" value="" style="endArrow=classic;html=1;rounded=0;exitX=0.5;exitY=0;exitDx=0;exitDy=0;entryX=0.75;entryY=1;entryDx=0;entryDy=0;" edge="1" parent="zyj9cvmnmt_Ec4w8JjRw-1" source="YF30UYbHdNqfojSDqpkw-166" target="zyj9cvmnmt_Ec4w8JjRw-42">
          <mxGeometry width="50" height="50" relative="1" as="geometry">
            <mxPoint x="320" y="300" as="sourcePoint" />
            <mxPoint x="370" y="250" as="targetPoint" />
            <Array as="points">
              <mxPoint x="240" y="360" />
              <mxPoint x="173" y="360" />
            </Array>
          </mxGeometry>
        </mxCell>
      </root>
    </mxGraphModel>
  </diagram>
  <diagram name="Исходное приложение" id="-H_mtQnk-PTXWXPvYvuk">
    <mxGraphModel dx="1058" dy="465" grid="1" gridSize="10" guides="1" tooltips="1" connect="1" arrows="1" fold="1" page="1" pageScale="1" pageWidth="1169" pageHeight="827" math="0" shadow="0">
      <root>
        <mxCell id="0" />
        <mxCell id="1" parent="0" />
        <mxCell id="SUeDsXZSLKDNqe5OMKnj-1" value="&lt;h1 style=&quot;margin-top: 0px;&quot;&gt;Исходное приложение&lt;/h1&gt;" style="text;html=1;whiteSpace=wrap;overflow=hidden;rounded=0;" parent="1" vertex="1">
          <mxGeometry x="20" y="30" width="180" height="120" as="geometry" />
        </mxCell>
        <mxCell id="SUeDsXZSLKDNqe5OMKnj-2" value="" style="group" parent="1" connectable="0" vertex="1">
          <mxGeometry x="20" y="110" width="260" height="80" as="geometry" />
        </mxCell>
        <mxCell id="zA23MoTUsTF4_91t8viU-2" value="MongoDB" style="shape=cylinder3;whiteSpace=wrap;html=1;boundedLbl=1;backgroundOutline=1;size=15;" parent="SUeDsXZSLKDNqe5OMKnj-2" vertex="1">
          <mxGeometry x="200" width="60" height="80" as="geometry" />
        </mxCell>
        <mxCell id="zA23MoTUsTF4_91t8viU-3" value="pymongo-api" style="rounded=1;whiteSpace=wrap;html=1;" parent="SUeDsXZSLKDNqe5OMKnj-2" vertex="1">
          <mxGeometry y="10" width="120" height="60" as="geometry" />
        </mxCell>
        <mxCell id="zA23MoTUsTF4_91t8viU-4" style="edgeStyle=orthogonalEdgeStyle;rounded=0;orthogonalLoop=1;jettySize=auto;html=1;exitX=1;exitY=0.5;exitDx=0;exitDy=0;entryX=0;entryY=0.5;entryDx=0;entryDy=0;entryPerimeter=0;" parent="SUeDsXZSLKDNqe5OMKnj-2" source="zA23MoTUsTF4_91t8viU-3" target="zA23MoTUsTF4_91t8viU-2" edge="1">
          <mxGeometry relative="1" as="geometry" />
        </mxCell>
      </root>
    </mxGraphModel>
  </diagram>
  <diagram id="JeHxgBJY0jHNo6JDg9E4" name="Схема 1. Шардирование">
    <mxGraphModel grid="1" page="1" gridSize="10" guides="1" tooltips="1" connect="1" arrows="1" fold="1" pageScale="1" pageWidth="827" pageHeight="1169" math="0" shadow="0">
      <root>
        <mxCell id="0" />
        <mxCell id="1" parent="0" />
        <mxCell id="TGA0SRaOSMcCK6UArT9j-1" value="&lt;h1 style=&quot;margin-top: 0px;&quot;&gt;Схема 1.&lt;/h1&gt;&lt;div&gt;Шардирование&lt;/div&gt;" style="text;html=1;whiteSpace=wrap;overflow=hidden;rounded=0;" vertex="1" parent="1">
          <mxGeometry x="30" y="20" width="180" height="120" as="geometry" />
        </mxCell>
        <mxCell id="TGA0SRaOSMcCK6UArT9j-2" value="" style="group" connectable="0" vertex="1" parent="1">
          <mxGeometry x="30" y="128" width="530" height="412" as="geometry" />
        </mxCell>
        <mxCell id="TGA0SRaOSMcCK6UArT9j-3" value="" style="endArrow=classic;html=1;rounded=0;" edge="1" parent="TGA0SRaOSMcCK6UArT9j-2">
          <mxGeometry width="50" height="50" relative="1" as="geometry">
            <mxPoint x="230" y="152" as="sourcePoint" />
            <mxPoint x="290" y="212" as="targetPoint" />
            <Array as="points">
              <mxPoint x="290" y="152" />
            </Array>
          </mxGeometry>
        </mxCell>
        <mxCell id="TGA0SRaOSMcCK6UArT9j-4" value="" style="endArrow=classic;html=1;rounded=0;" edge="1" parent="TGA0SRaOSMcCK6UArT9j-2">
          <mxGeometry width="50" height="50" relative="1" as="geometry">
            <mxPoint x="230" y="152" as="sourcePoint" />
            <mxPoint x="170" y="212" as="targetPoint" />
            <Array as="points">
              <mxPoint x="170" y="152" />
            </Array>
          </mxGeometry>
        </mxCell>
        <mxCell id="TGA0SRaOSMcCK6UArT9j-5" value="" style="endArrow=none;html=1;rounded=0;entryX=0.5;entryY=1;entryDx=0;entryDy=0;entryPerimeter=0;" edge="1" parent="TGA0SRaOSMcCK6UArT9j-2" target="TGA0SRaOSMcCK6UArT9j-12">
          <mxGeometry width="50" height="50" relative="1" as="geometry">
            <mxPoint x="230" y="152" as="sourcePoint" />
            <mxPoint x="320" y="82" as="targetPoint" />
          </mxGeometry>
        </mxCell>
        <mxCell id="TGA0SRaOSMcCK6UArT9j-6" value="MongoDB" style="shape=cylinder3;whiteSpace=wrap;html=1;boundedLbl=1;backgroundOutline=1;size=15;" vertex="1" parent="TGA0SRaOSMcCK6UArT9j-2">
          <mxGeometry x="140" y="212" width="60" height="80" as="geometry" />
        </mxCell>
        <mxCell id="TGA0SRaOSMcCK6UArT9j-7" value="MongoDB" style="shape=cylinder3;whiteSpace=wrap;html=1;boundedLbl=1;backgroundOutline=1;size=15;" vertex="1" parent="TGA0SRaOSMcCK6UArT9j-2">
          <mxGeometry x="260" y="212" width="60" height="80" as="geometry" />
        </mxCell>
        <mxCell id="TGA0SRaOSMcCK6UArT9j-8" value="&lt;span style=&quot;color: rgba(0, 0, 0, 0.85); font-family: Menlo, &amp;quot;Ubuntu Mono&amp;quot;, consolas, source-code-pro, monospace; font-size: 14px; text-align: start; white-space: pre; background-color: rgb(245, 245, 245);&quot;&gt;shard1&lt;/span&gt;" style="text;html=1;align=center;verticalAlign=middle;whiteSpace=wrap;rounded=0;shadow=1;fillColor=#f5f5f5;fontColor=#333333;strokeColor=#666666;" vertex="1" parent="TGA0SRaOSMcCK6UArT9j-2">
          <mxGeometry x="30" y="237" width="100" height="30" as="geometry" />
        </mxCell>
        <mxCell id="TGA0SRaOSMcCK6UArT9j-9" value="mongos_router" style="text;html=1;align=center;verticalAlign=middle;whiteSpace=wrap;rounded=0;shadow=1;fillColor=#f5f5f5;fontColor=#333333;strokeColor=#666666;" vertex="1" parent="TGA0SRaOSMcCK6UArT9j-2">
          <mxGeometry x="180" width="100" height="30" as="geometry" />
        </mxCell>
        <mxCell id="TGA0SRaOSMcCK6UArT9j-10" value="pymongo-api" style="rounded=1;whiteSpace=wrap;html=1;" vertex="1" parent="TGA0SRaOSMcCK6UArT9j-2">
          <mxGeometry y="42" width="120" height="60" as="geometry" />
        </mxCell>
        <mxCell id="TGA0SRaOSMcCK6UArT9j-11" style="edgeStyle=orthogonalEdgeStyle;rounded=0;orthogonalLoop=1;jettySize=auto;html=1;exitX=1;exitY=0.5;exitDx=0;exitDy=0;entryX=0;entryY=0.5;entryDx=0;entryDy=0;entryPerimeter=0;" edge="1" parent="TGA0SRaOSMcCK6UArT9j-2" source="TGA0SRaOSMcCK6UArT9j-10">
          <mxGeometry relative="1" as="geometry">
            <mxPoint x="200" y="72" as="targetPoint" />
          </mxGeometry>
        </mxCell>
        <mxCell id="TGA0SRaOSMcCK6UArT9j-12" value="MongoDB" style="shape=cylinder3;whiteSpace=wrap;html=1;boundedLbl=1;backgroundOutline=1;size=15;" vertex="1" parent="TGA0SRaOSMcCK6UArT9j-2">
          <mxGeometry x="200" y="32" width="60" height="80" as="geometry" />
        </mxCell>
        <mxCell id="TGA0SRaOSMcCK6UArT9j-13" value="&lt;span style=&quot;color: rgba(0, 0, 0, 0.85); font-family: Menlo, &amp;quot;Ubuntu Mono&amp;quot;, consolas, source-code-pro, monospace; font-size: 14px; text-align: start; white-space: pre; background-color: rgb(245, 245, 245);&quot;&gt;shard2&lt;/span&gt;" style="text;html=1;align=center;verticalAlign=middle;whiteSpace=wrap;rounded=0;shadow=1;fillColor=#f5f5f5;fontColor=#333333;strokeColor=#666666;" vertex="1" parent="TGA0SRaOSMcCK6UArT9j-2">
          <mxGeometry x="330" y="237" width="100" height="30" as="geometry" />
        </mxCell>
        <mxCell id="TGA0SRaOSMcCK6UArT9j-14" value="&lt;span style=&quot;color: rgba(0, 0, 0, 0.85); font-family: Menlo, &amp;quot;Ubuntu Mono&amp;quot;, consolas, source-code-pro, monospace; font-size: 14px; text-align: start; white-space: pre; background-color: rgb(245, 245, 245);&quot;&gt;configSrv&lt;/span&gt;" style="text;html=1;align=center;verticalAlign=middle;whiteSpace=wrap;rounded=0;shadow=1;fillColor=#f5f5f5;fontColor=#333333;strokeColor=#666666;" vertex="1" parent="TGA0SRaOSMcCK6UArT9j-2">
          <mxGeometry x="360" width="100" height="30" as="geometry" />
        </mxCell>
        <mxCell id="TGA0SRaOSMcCK6UArT9j-15" value="MongoDB" style="shape=cylinder3;whiteSpace=wrap;html=1;boundedLbl=1;backgroundOutline=1;size=15;" vertex="1" parent="TGA0SRaOSMcCK6UArT9j-2">
          <mxGeometry x="380" y="32" width="60" height="80" as="geometry" />
        </mxCell>
        <mxCell id="TGA0SRaOSMcCK6UArT9j-16" value="" style="endArrow=classic;html=1;rounded=0;exitX=1;exitY=0.5;exitDx=0;exitDy=0;exitPerimeter=0;entryX=0;entryY=0.5;entryDx=0;entryDy=0;entryPerimeter=0;" edge="1" parent="TGA0SRaOSMcCK6UArT9j-2" source="TGA0SRaOSMcCK6UArT9j-12" target="TGA0SRaOSMcCK6UArT9j-15">
          <mxGeometry width="50" height="50" relative="1" as="geometry">
            <mxPoint x="360" y="162" as="sourcePoint" />
            <mxPoint x="410" y="112" as="targetPoint" />
          </mxGeometry>
        </mxCell>
        <mxCell id="TGA0SRaOSMcCK6UArT9j-17" value="" style="endArrow=none;html=1;rounded=0;entryX=0.5;entryY=1;entryDx=0;entryDy=0;entryPerimeter=0;" edge="1" parent="TGA0SRaOSMcCK6UArT9j-2" target="TGA0SRaOSMcCK6UArT9j-6">
          <mxGeometry width="50" height="50" relative="1" as="geometry">
            <mxPoint x="170" y="332" as="sourcePoint" />
            <mxPoint x="410" y="312" as="targetPoint" />
          </mxGeometry>
        </mxCell>
        <mxCell id="TGA0SRaOSMcCK6UArT9j-18" value="" style="endArrow=none;html=1;rounded=0;entryX=0.5;entryY=1;entryDx=0;entryDy=0;entryPerimeter=0;" edge="1" parent="TGA0SRaOSMcCK6UArT9j-2" target="TGA0SRaOSMcCK6UArT9j-7">
          <mxGeometry width="50" height="50" relative="1" as="geometry">
            <mxPoint x="290" y="332" as="sourcePoint" />
            <mxPoint x="410" y="312" as="targetPoint" />
          </mxGeometry>
        </mxCell>
        <mxCell id="TGA0SRaOSMcCK6UArT9j-19" value="" style="endArrow=none;html=1;rounded=0;" edge="1" parent="TGA0SRaOSMcCK6UArT9j-2">
          <mxGeometry width="50" height="50" relative="1" as="geometry">
            <mxPoint x="170" y="332" as="sourcePoint" />
            <mxPoint x="290" y="332" as="targetPoint" />
          </mxGeometry>
        </mxCell>
        <mxCell id="TGA0SRaOSMcCK6UArT9j-20" value="" style="endArrow=classic;html=1;rounded=0;entryX=0.5;entryY=1;entryDx=0;entryDy=0;entryPerimeter=0;" edge="1" parent="TGA0SRaOSMcCK6UArT9j-2" target="TGA0SRaOSMcCK6UArT9j-15">
          <mxGeometry width="50" height="50" relative="1" as="geometry">
            <mxPoint x="220" y="332" as="sourcePoint" />
            <mxPoint x="620" y="202" as="targetPoint" />
            <Array as="points">
              <mxPoint x="220" y="412" />
              <mxPoint x="530" y="412" />
              <mxPoint x="530" y="182" />
              <mxPoint x="410" y="182" />
            </Array>
          </mxGeometry>
        </mxCell>
      </root>
    </mxGraphModel>
  </diagram>
  <diagram name="Схема 2. Репликация" id="4RDA2aXI1aFirywnnHd6">
    <mxGraphModel grid="1" page="1" gridSize="10" guides="1" tooltips="1" connect="1" arrows="1" fold="1" pageScale="1" pageWidth="827" pageHeight="1169" math="0" shadow="0">
      <root>
        <mxCell id="hLACzqdrKT_wknqYfn-b-0" />
        <mxCell id="hLACzqdrKT_wknqYfn-b-1" parent="hLACzqdrKT_wknqYfn-b-0" />
        <mxCell id="LUAuYRjfRHpGUHByP78i-5" value="" style="rounded=0;whiteSpace=wrap;html=1;" vertex="1" parent="hLACzqdrKT_wknqYfn-b-1">
          <mxGeometry x="280" y="340" width="230" height="180" as="geometry" />
        </mxCell>
        <mxCell id="LUAuYRjfRHpGUHByP78i-4" value="" style="rounded=0;whiteSpace=wrap;html=1;" vertex="1" parent="hLACzqdrKT_wknqYfn-b-1">
          <mxGeometry x="40" y="340" width="230" height="180" as="geometry" />
        </mxCell>
        <mxCell id="hLACzqdrKT_wknqYfn-b-2" value="&lt;h1 style=&quot;margin-top: 0px;&quot;&gt;Схема 2.&lt;/h1&gt;&lt;div&gt;Репликация&lt;/div&gt;" style="text;html=1;whiteSpace=wrap;overflow=hidden;rounded=0;" parent="hLACzqdrKT_wknqYfn-b-1" vertex="1">
          <mxGeometry x="30" y="20" width="180" height="120" as="geometry" />
        </mxCell>
        <mxCell id="hLACzqdrKT_wknqYfn-b-4" value="" style="endArrow=classic;html=1;rounded=0;" parent="hLACzqdrKT_wknqYfn-b-1" edge="1">
          <mxGeometry width="50" height="50" relative="1" as="geometry">
            <mxPoint x="260" y="280" as="sourcePoint" />
            <mxPoint x="320" y="340" as="targetPoint" />
            <Array as="points">
              <mxPoint x="320" y="280" />
            </Array>
          </mxGeometry>
        </mxCell>
        <mxCell id="hLACzqdrKT_wknqYfn-b-5" value="" style="endArrow=classic;html=1;rounded=0;" parent="hLACzqdrKT_wknqYfn-b-1" edge="1">
          <mxGeometry width="50" height="50" relative="1" as="geometry">
            <mxPoint x="260" y="280" as="sourcePoint" />
            <mxPoint x="200" y="340" as="targetPoint" />
            <Array as="points">
              <mxPoint x="200" y="280" />
            </Array>
          </mxGeometry>
        </mxCell>
        <mxCell id="hLACzqdrKT_wknqYfn-b-6" value="" style="endArrow=none;html=1;rounded=0;entryX=0.5;entryY=1;entryDx=0;entryDy=0;entryPerimeter=0;" parent="hLACzqdrKT_wknqYfn-b-1" target="hLACzqdrKT_wknqYfn-b-13" edge="1">
          <mxGeometry width="50" height="50" relative="1" as="geometry">
            <mxPoint x="260" y="280" as="sourcePoint" />
            <mxPoint x="350" y="210" as="targetPoint" />
          </mxGeometry>
        </mxCell>
        <mxCell id="hLACzqdrKT_wknqYfn-b-7" value="MongoDB&lt;div&gt;master&lt;/div&gt;" style="shape=cylinder3;whiteSpace=wrap;html=1;boundedLbl=1;backgroundOutline=1;size=15;" parent="hLACzqdrKT_wknqYfn-b-1" vertex="1">
          <mxGeometry x="115" y="350" width="80" height="70" as="geometry" />
        </mxCell>
        <mxCell id="hLACzqdrKT_wknqYfn-b-9" value="&lt;span style=&quot;color: rgba(0, 0, 0, 0.85); font-family: Menlo, &amp;quot;Ubuntu Mono&amp;quot;, consolas, source-code-pro, monospace; font-size: 14px; text-align: start; white-space: pre; background-color: rgb(245, 245, 245);&quot;&gt;shard1&lt;/span&gt;" style="text;html=1;align=center;verticalAlign=middle;whiteSpace=wrap;rounded=0;shadow=1;fillColor=#f5f5f5;fontColor=#333333;strokeColor=#666666;" parent="hLACzqdrKT_wknqYfn-b-1" vertex="1">
          <mxGeometry x="40" y="490" width="100" height="30" as="geometry" />
        </mxCell>
        <mxCell id="hLACzqdrKT_wknqYfn-b-10" value="mongos_router" style="text;html=1;align=center;verticalAlign=middle;whiteSpace=wrap;rounded=0;shadow=1;fillColor=#f5f5f5;fontColor=#333333;strokeColor=#666666;" parent="hLACzqdrKT_wknqYfn-b-1" vertex="1">
          <mxGeometry x="210" y="128" width="100" height="30" as="geometry" />
        </mxCell>
        <mxCell id="hLACzqdrKT_wknqYfn-b-11" value="pymongo-api" style="rounded=1;whiteSpace=wrap;html=1;" parent="hLACzqdrKT_wknqYfn-b-1" vertex="1">
          <mxGeometry x="30" y="170" width="120" height="60" as="geometry" />
        </mxCell>
        <mxCell id="hLACzqdrKT_wknqYfn-b-12" style="edgeStyle=orthogonalEdgeStyle;rounded=0;orthogonalLoop=1;jettySize=auto;html=1;exitX=1;exitY=0.5;exitDx=0;exitDy=0;entryX=0;entryY=0.5;entryDx=0;entryDy=0;entryPerimeter=0;" parent="hLACzqdrKT_wknqYfn-b-1" source="hLACzqdrKT_wknqYfn-b-11" edge="1">
          <mxGeometry relative="1" as="geometry">
            <mxPoint x="230" y="200" as="targetPoint" />
          </mxGeometry>
        </mxCell>
        <mxCell id="hLACzqdrKT_wknqYfn-b-13" value="MongoDB" style="shape=cylinder3;whiteSpace=wrap;html=1;boundedLbl=1;backgroundOutline=1;size=15;" parent="hLACzqdrKT_wknqYfn-b-1" vertex="1">
          <mxGeometry x="230" y="160" width="60" height="80" as="geometry" />
        </mxCell>
        <mxCell id="hLACzqdrKT_wknqYfn-b-14" value="&lt;span style=&quot;color: rgba(0, 0, 0, 0.85); font-family: Menlo, &amp;quot;Ubuntu Mono&amp;quot;, consolas, source-code-pro, monospace; font-size: 14px; text-align: start; white-space: pre; background-color: rgb(245, 245, 245);&quot;&gt;shard2&lt;/span&gt;" style="text;html=1;align=center;verticalAlign=middle;whiteSpace=wrap;rounded=0;shadow=1;fillColor=#f5f5f5;fontColor=#333333;strokeColor=#666666;" parent="hLACzqdrKT_wknqYfn-b-1" vertex="1">
          <mxGeometry x="410" y="490" width="100" height="30" as="geometry" />
        </mxCell>
        <mxCell id="hLACzqdrKT_wknqYfn-b-15" value="&lt;span style=&quot;color: rgba(0, 0, 0, 0.85); font-family: Menlo, &amp;quot;Ubuntu Mono&amp;quot;, consolas, source-code-pro, monospace; font-size: 14px; text-align: start; white-space: pre; background-color: rgb(245, 245, 245);&quot;&gt;configSrv&lt;/span&gt;" style="text;html=1;align=center;verticalAlign=middle;whiteSpace=wrap;rounded=0;shadow=1;fillColor=#f5f5f5;fontColor=#333333;strokeColor=#666666;" parent="hLACzqdrKT_wknqYfn-b-1" vertex="1">
          <mxGeometry x="390" y="128" width="100" height="30" as="geometry" />
        </mxCell>
        <mxCell id="hLACzqdrKT_wknqYfn-b-16" value="MongoDB" style="shape=cylinder3;whiteSpace=wrap;html=1;boundedLbl=1;backgroundOutline=1;size=15;" parent="hLACzqdrKT_wknqYfn-b-1" vertex="1">
          <mxGeometry x="410" y="160" width="60" height="80" as="geometry" />
        </mxCell>
        <mxCell id="hLACzqdrKT_wknqYfn-b-17" value="" style="endArrow=classic;html=1;rounded=0;exitX=1;exitY=0.5;exitDx=0;exitDy=0;exitPerimeter=0;entryX=0;entryY=0.5;entryDx=0;entryDy=0;entryPerimeter=0;" parent="hLACzqdrKT_wknqYfn-b-1" source="hLACzqdrKT_wknqYfn-b-13" target="hLACzqdrKT_wknqYfn-b-16" edge="1">
          <mxGeometry width="50" height="50" relative="1" as="geometry">
            <mxPoint x="390" y="290" as="sourcePoint" />
            <mxPoint x="440" y="240" as="targetPoint" />
          </mxGeometry>
        </mxCell>
        <mxCell id="hLACzqdrKT_wknqYfn-b-18" value="" style="endArrow=none;html=1;rounded=0;" parent="hLACzqdrKT_wknqYfn-b-1" edge="1">
          <mxGeometry width="50" height="50" relative="1" as="geometry">
            <mxPoint x="200" y="520" as="sourcePoint" />
            <mxPoint x="200" y="580" as="targetPoint" />
          </mxGeometry>
        </mxCell>
        <mxCell id="hLACzqdrKT_wknqYfn-b-19" value="" style="endArrow=none;html=1;rounded=0;entryX=0.174;entryY=0.998;entryDx=0;entryDy=0;entryPerimeter=0;" parent="hLACzqdrKT_wknqYfn-b-1" target="LUAuYRjfRHpGUHByP78i-5" edge="1">
          <mxGeometry width="50" height="50" relative="1" as="geometry">
            <mxPoint x="320" y="580" as="sourcePoint" />
            <mxPoint x="440" y="440" as="targetPoint" />
          </mxGeometry>
        </mxCell>
        <mxCell id="hLACzqdrKT_wknqYfn-b-20" value="" style="endArrow=none;html=1;rounded=0;" parent="hLACzqdrKT_wknqYfn-b-1" edge="1">
          <mxGeometry width="50" height="50" relative="1" as="geometry">
            <mxPoint x="200" y="580" as="sourcePoint" />
            <mxPoint x="320" y="580" as="targetPoint" />
          </mxGeometry>
        </mxCell>
        <mxCell id="hLACzqdrKT_wknqYfn-b-21" value="" style="endArrow=classic;html=1;rounded=0;entryX=0.5;entryY=1;entryDx=0;entryDy=0;entryPerimeter=0;" parent="hLACzqdrKT_wknqYfn-b-1" target="hLACzqdrKT_wknqYfn-b-16" edge="1">
          <mxGeometry width="50" height="50" relative="1" as="geometry">
            <mxPoint x="250" y="580" as="sourcePoint" />
            <mxPoint x="650" y="330" as="targetPoint" />
            <Array as="points">
              <mxPoint x="250" y="700" />
              <mxPoint x="560" y="700" />
              <mxPoint x="560" y="310" />
              <mxPoint x="440" y="310" />
            </Array>
          </mxGeometry>
        </mxCell>
        <mxCell id="LUAuYRjfRHpGUHByP78i-7" value="MongoDB&lt;div&gt;slave&lt;/div&gt;" style="shape=cylinder3;whiteSpace=wrap;html=1;boundedLbl=1;backgroundOutline=1;size=15;" vertex="1" parent="hLACzqdrKT_wknqYfn-b-1">
          <mxGeometry x="50" y="415" width="80" height="70" as="geometry" />
        </mxCell>
        <mxCell id="LUAuYRjfRHpGUHByP78i-8" value="MongoDB&lt;div&gt;slave&lt;br&gt;&lt;/div&gt;" style="shape=cylinder3;whiteSpace=wrap;html=1;boundedLbl=1;backgroundOutline=1;size=15;" vertex="1" parent="hLACzqdrKT_wknqYfn-b-1">
          <mxGeometry x="180" y="418" width="80" height="70" as="geometry" />
        </mxCell>
        <mxCell id="LUAuYRjfRHpGUHByP78i-9" value="MongoDB&lt;div&gt;master&lt;/div&gt;" style="shape=cylinder3;whiteSpace=wrap;html=1;boundedLbl=1;backgroundOutline=1;size=15;" vertex="1" parent="hLACzqdrKT_wknqYfn-b-1">
          <mxGeometry x="355" y="350" width="80" height="70" as="geometry" />
        </mxCell>
        <mxCell id="LUAuYRjfRHpGUHByP78i-10" value="MongoDB&lt;div&gt;slave&lt;/div&gt;" style="shape=cylinder3;whiteSpace=wrap;html=1;boundedLbl=1;backgroundOutline=1;size=15;" vertex="1" parent="hLACzqdrKT_wknqYfn-b-1">
          <mxGeometry x="290" y="415" width="80" height="70" as="geometry" />
        </mxCell>
        <mxCell id="LUAuYRjfRHpGUHByP78i-11" value="MongoDB&lt;div&gt;slave&lt;br&gt;&lt;/div&gt;" style="shape=cylinder3;whiteSpace=wrap;html=1;boundedLbl=1;backgroundOutline=1;size=15;" vertex="1" parent="hLACzqdrKT_wknqYfn-b-1">
          <mxGeometry x="420" y="415" width="80" height="70" as="geometry" />
        </mxCell>
        <mxCell id="DXIG0hugOMSsEptEBzDW-0" value="" style="group" connectable="0" vertex="1" parent="hLACzqdrKT_wknqYfn-b-1">
          <mxGeometry x="130.79999999999993" y="420" width="49.200000000000045" height="40.110000000000014" as="geometry" />
        </mxCell>
        <mxCell id="DXIG0hugOMSsEptEBzDW-1" value="" style="endArrow=classic;html=1;rounded=0;entryX=0.5;entryY=1;entryDx=0;entryDy=0;entryPerimeter=0;" edge="1" parent="DXIG0hugOMSsEptEBzDW-0">
          <mxGeometry width="50" height="50" relative="1" as="geometry">
            <mxPoint x="24.920000000000073" y="40" as="sourcePoint" />
            <mxPoint x="24.920000000000073" as="targetPoint" />
          </mxGeometry>
        </mxCell>
        <mxCell id="DXIG0hugOMSsEptEBzDW-2" value="" style="endArrow=classic;startArrow=classic;html=1;rounded=0;exitX=1.001;exitY=0.559;exitDx=0;exitDy=0;exitPerimeter=0;entryX=-0.009;entryY=0.573;entryDx=0;entryDy=0;entryPerimeter=0;" edge="1" parent="DXIG0hugOMSsEptEBzDW-0">
          <mxGeometry width="50" height="50" relative="1" as="geometry">
            <mxPoint y="39.129999999999995" as="sourcePoint" />
            <mxPoint x="49.200000000000045" y="40.110000000000014" as="targetPoint" />
          </mxGeometry>
        </mxCell>
        <mxCell id="DXIG0hugOMSsEptEBzDW-3" value="" style="group" connectable="0" vertex="1" parent="hLACzqdrKT_wknqYfn-b-1">
          <mxGeometry x="369.9999999999999" y="420" width="49.200000000000045" height="40.110000000000014" as="geometry" />
        </mxCell>
        <mxCell id="DXIG0hugOMSsEptEBzDW-4" value="" style="endArrow=classic;html=1;rounded=0;entryX=0.5;entryY=1;entryDx=0;entryDy=0;entryPerimeter=0;" edge="1" parent="DXIG0hugOMSsEptEBzDW-3">
          <mxGeometry width="50" height="50" relative="1" as="geometry">
            <mxPoint x="24.920000000000073" y="40" as="sourcePoint" />
            <mxPoint x="24.920000000000073" as="targetPoint" />
          </mxGeometry>
        </mxCell>
        <mxCell id="DXIG0hugOMSsEptEBzDW-5" value="" style="endArrow=classic;startArrow=classic;html=1;rounded=0;exitX=1.001;exitY=0.559;exitDx=0;exitDy=0;exitPerimeter=0;entryX=-0.009;entryY=0.573;entryDx=0;entryDy=0;entryPerimeter=0;" edge="1" parent="DXIG0hugOMSsEptEBzDW-3">
          <mxGeometry width="50" height="50" relative="1" as="geometry">
            <mxPoint y="39.129999999999995" as="sourcePoint" />
            <mxPoint x="49.200000000000045" y="40.110000000000014" as="targetPoint" />
          </mxGeometry>
        </mxCell>
      </root>
    </mxGraphModel>
  </diagram>
  <diagram name="Схема 3. Кеширование" id="dV9QsPn50QxvzhKXzSya">
    <mxGraphModel grid="1" page="1" gridSize="10" guides="1" tooltips="1" connect="1" arrows="1" fold="1" pageScale="1" pageWidth="827" pageHeight="1169" math="0" shadow="0">
      <root>
        <mxCell id="tlitxY171CUbLuyldwfd-0" />
        <mxCell id="tlitxY171CUbLuyldwfd-1" parent="tlitxY171CUbLuyldwfd-0" />
        <mxCell id="tlitxY171CUbLuyldwfd-2" value="" style="rounded=0;whiteSpace=wrap;html=1;" parent="tlitxY171CUbLuyldwfd-1" vertex="1">
          <mxGeometry x="280" y="340" width="230" height="180" as="geometry" />
        </mxCell>
        <mxCell id="tlitxY171CUbLuyldwfd-3" value="" style="rounded=0;whiteSpace=wrap;html=1;" parent="tlitxY171CUbLuyldwfd-1" vertex="1">
          <mxGeometry x="40" y="340" width="230" height="180" as="geometry" />
        </mxCell>
        <mxCell id="tlitxY171CUbLuyldwfd-4" value="&lt;h1 style=&quot;margin-top: 0px;&quot;&gt;Схема 3.&lt;/h1&gt;&lt;div&gt;Кеширование&lt;/div&gt;" style="text;html=1;whiteSpace=wrap;overflow=hidden;rounded=0;" parent="tlitxY171CUbLuyldwfd-1" vertex="1">
          <mxGeometry x="30" y="20" width="120" height="70" as="geometry" />
        </mxCell>
        <mxCell id="tlitxY171CUbLuyldwfd-5" value="" style="endArrow=classic;html=1;rounded=0;" parent="tlitxY171CUbLuyldwfd-1" edge="1">
          <mxGeometry width="50" height="50" relative="1" as="geometry">
            <mxPoint x="260" y="280" as="sourcePoint" />
            <mxPoint x="320" y="340" as="targetPoint" />
            <Array as="points">
              <mxPoint x="320" y="280" />
            </Array>
          </mxGeometry>
        </mxCell>
        <mxCell id="tlitxY171CUbLuyldwfd-6" value="" style="endArrow=classic;html=1;rounded=0;" parent="tlitxY171CUbLuyldwfd-1" edge="1">
          <mxGeometry width="50" height="50" relative="1" as="geometry">
            <mxPoint x="260" y="280" as="sourcePoint" />
            <mxPoint x="200" y="340" as="targetPoint" />
            <Array as="points">
              <mxPoint x="200" y="280" />
            </Array>
          </mxGeometry>
        </mxCell>
        <mxCell id="tlitxY171CUbLuyldwfd-7" value="" style="endArrow=none;html=1;rounded=0;entryX=0.5;entryY=1;entryDx=0;entryDy=0;entryPerimeter=0;" parent="tlitxY171CUbLuyldwfd-1" target="tlitxY171CUbLuyldwfd-13" edge="1">
          <mxGeometry width="50" height="50" relative="1" as="geometry">
            <mxPoint x="260" y="280" as="sourcePoint" />
            <mxPoint x="350" y="210" as="targetPoint" />
          </mxGeometry>
        </mxCell>
        <mxCell id="tlitxY171CUbLuyldwfd-8" value="MongoDB&lt;div&gt;master&lt;/div&gt;" style="shape=cylinder3;whiteSpace=wrap;html=1;boundedLbl=1;backgroundOutline=1;size=15;" parent="tlitxY171CUbLuyldwfd-1" vertex="1">
          <mxGeometry x="115" y="350" width="80" height="70" as="geometry" />
        </mxCell>
        <mxCell id="tlitxY171CUbLuyldwfd-9" value="&lt;span style=&quot;color: rgba(0, 0, 0, 0.85); font-family: Menlo, &amp;quot;Ubuntu Mono&amp;quot;, consolas, source-code-pro, monospace; font-size: 14px; text-align: start; white-space: pre; background-color: rgb(245, 245, 245);&quot;&gt;shard1&lt;/span&gt;" style="text;html=1;align=center;verticalAlign=middle;whiteSpace=wrap;rounded=0;shadow=1;fillColor=#f5f5f5;fontColor=#333333;strokeColor=#666666;" parent="tlitxY171CUbLuyldwfd-1" vertex="1">
          <mxGeometry x="40" y="490" width="100" height="30" as="geometry" />
        </mxCell>
        <mxCell id="tlitxY171CUbLuyldwfd-10" value="mongos_router" style="text;html=1;align=center;verticalAlign=middle;whiteSpace=wrap;rounded=0;shadow=1;fillColor=#f5f5f5;fontColor=#333333;strokeColor=#666666;" parent="tlitxY171CUbLuyldwfd-1" vertex="1">
          <mxGeometry x="210" y="128" width="100" height="30" as="geometry" />
        </mxCell>
        <mxCell id="tlitxY171CUbLuyldwfd-11" value="pymongo-api" style="rounded=1;whiteSpace=wrap;html=1;" parent="tlitxY171CUbLuyldwfd-1" vertex="1">
          <mxGeometry x="30" y="170" width="120" height="60" as="geometry" />
        </mxCell>
        <mxCell id="tlitxY171CUbLuyldwfd-12" style="edgeStyle=orthogonalEdgeStyle;rounded=0;orthogonalLoop=1;jettySize=auto;html=1;exitX=1;exitY=0.5;exitDx=0;exitDy=0;entryX=0;entryY=0.5;entryDx=0;entryDy=0;entryPerimeter=0;" parent="tlitxY171CUbLuyldwfd-1" source="tlitxY171CUbLuyldwfd-11" edge="1">
          <mxGeometry relative="1" as="geometry">
            <mxPoint x="230" y="200" as="targetPoint" />
          </mxGeometry>
        </mxCell>
        <mxCell id="tlitxY171CUbLuyldwfd-13" value="MongoDB" style="shape=cylinder3;whiteSpace=wrap;html=1;boundedLbl=1;backgroundOutline=1;size=15;" parent="tlitxY171CUbLuyldwfd-1" vertex="1">
          <mxGeometry x="230" y="160" width="60" height="80" as="geometry" />
        </mxCell>
        <mxCell id="tlitxY171CUbLuyldwfd-14" value="&lt;span style=&quot;color: rgba(0, 0, 0, 0.85); font-family: Menlo, &amp;quot;Ubuntu Mono&amp;quot;, consolas, source-code-pro, monospace; font-size: 14px; text-align: start; white-space: pre; background-color: rgb(245, 245, 245);&quot;&gt;shard2&lt;/span&gt;" style="text;html=1;align=center;verticalAlign=middle;whiteSpace=wrap;rounded=0;shadow=1;fillColor=#f5f5f5;fontColor=#333333;strokeColor=#666666;" parent="tlitxY171CUbLuyldwfd-1" vertex="1">
          <mxGeometry x="410" y="490" width="100" height="30" as="geometry" />
        </mxCell>
        <mxCell id="tlitxY171CUbLuyldwfd-15" value="&lt;span style=&quot;color: rgba(0, 0, 0, 0.85); font-family: Menlo, &amp;quot;Ubuntu Mono&amp;quot;, consolas, source-code-pro, monospace; font-size: 14px; text-align: start; white-space: pre; background-color: rgb(245, 245, 245);&quot;&gt;configSrv&lt;/span&gt;" style="text;html=1;align=center;verticalAlign=middle;whiteSpace=wrap;rounded=0;shadow=1;fillColor=#f5f5f5;fontColor=#333333;strokeColor=#666666;" parent="tlitxY171CUbLuyldwfd-1" vertex="1">
          <mxGeometry x="390" y="128" width="100" height="30" as="geometry" />
        </mxCell>
        <mxCell id="tlitxY171CUbLuyldwfd-16" value="MongoDB" style="shape=cylinder3;whiteSpace=wrap;html=1;boundedLbl=1;backgroundOutline=1;size=15;" parent="tlitxY171CUbLuyldwfd-1" vertex="1">
          <mxGeometry x="410" y="160" width="60" height="80" as="geometry" />
        </mxCell>
        <mxCell id="tlitxY171CUbLuyldwfd-17" value="" style="endArrow=classic;html=1;rounded=0;exitX=1;exitY=0.5;exitDx=0;exitDy=0;exitPerimeter=0;entryX=0;entryY=0.5;entryDx=0;entryDy=0;entryPerimeter=0;" parent="tlitxY171CUbLuyldwfd-1" source="tlitxY171CUbLuyldwfd-13" target="tlitxY171CUbLuyldwfd-16" edge="1">
          <mxGeometry width="50" height="50" relative="1" as="geometry">
            <mxPoint x="390" y="290" as="sourcePoint" />
            <mxPoint x="440" y="240" as="targetPoint" />
          </mxGeometry>
        </mxCell>
        <mxCell id="tlitxY171CUbLuyldwfd-18" value="" style="endArrow=none;html=1;rounded=0;" parent="tlitxY171CUbLuyldwfd-1" edge="1">
          <mxGeometry width="50" height="50" relative="1" as="geometry">
            <mxPoint x="200" y="520" as="sourcePoint" />
            <mxPoint x="200" y="580" as="targetPoint" />
          </mxGeometry>
        </mxCell>
        <mxCell id="tlitxY171CUbLuyldwfd-19" value="" style="endArrow=none;html=1;rounded=0;entryX=0.174;entryY=0.998;entryDx=0;entryDy=0;entryPerimeter=0;" parent="tlitxY171CUbLuyldwfd-1" target="tlitxY171CUbLuyldwfd-2" edge="1">
          <mxGeometry width="50" height="50" relative="1" as="geometry">
            <mxPoint x="320" y="580" as="sourcePoint" />
            <mxPoint x="440" y="440" as="targetPoint" />
          </mxGeometry>
        </mxCell>
        <mxCell id="tlitxY171CUbLuyldwfd-20" value="" style="endArrow=none;html=1;rounded=0;" parent="tlitxY171CUbLuyldwfd-1" edge="1">
          <mxGeometry width="50" height="50" relative="1" as="geometry">
            <mxPoint x="200" y="580" as="sourcePoint" />
            <mxPoint x="320" y="580" as="targetPoint" />
          </mxGeometry>
        </mxCell>
        <mxCell id="tlitxY171CUbLuyldwfd-21" value="" style="endArrow=classic;html=1;rounded=0;entryX=0.5;entryY=1;entryDx=0;entryDy=0;entryPerimeter=0;" parent="tlitxY171CUbLuyldwfd-1" target="tlitxY171CUbLuyldwfd-16" edge="1">
          <mxGeometry width="50" height="50" relative="1" as="geometry">
            <mxPoint x="250" y="580" as="sourcePoint" />
            <mxPoint x="650" y="330" as="targetPoint" />
            <Array as="points">
              <mxPoint x="250" y="700" />
              <mxPoint x="560" y="700" />
              <mxPoint x="560" y="310" />
              <mxPoint x="440" y="310" />
            </Array>
          </mxGeometry>
        </mxCell>
        <mxCell id="tlitxY171CUbLuyldwfd-22" value="MongoDB&lt;div&gt;slave&lt;/div&gt;" style="shape=cylinder3;whiteSpace=wrap;html=1;boundedLbl=1;backgroundOutline=1;size=15;" parent="tlitxY171CUbLuyldwfd-1" vertex="1">
          <mxGeometry x="50" y="415" width="80" height="70" as="geometry" />
        </mxCell>
        <mxCell id="tlitxY171CUbLuyldwfd-23" value="MongoDB&lt;div&gt;slave&lt;br&gt;&lt;/div&gt;" style="shape=cylinder3;whiteSpace=wrap;html=1;boundedLbl=1;backgroundOutline=1;size=15;" parent="tlitxY171CUbLuyldwfd-1" vertex="1">
          <mxGeometry x="180" y="418" width="80" height="70" as="geometry" />
        </mxCell>
        <mxCell id="tlitxY171CUbLuyldwfd-24" value="MongoDB&lt;div&gt;master&lt;/div&gt;" style="shape=cylinder3;whiteSpace=wrap;html=1;boundedLbl=1;backgroundOutline=1;size=15;" parent="tlitxY171CUbLuyldwfd-1" vertex="1">
          <mxGeometry x="355" y="350" width="80" height="70" as="geometry" />
        </mxCell>
        <mxCell id="tlitxY171CUbLuyldwfd-25" value="MongoDB&lt;div&gt;slave&lt;/div&gt;" style="shape=cylinder3;whiteSpace=wrap;html=1;boundedLbl=1;backgroundOutline=1;size=15;" parent="tlitxY171CUbLuyldwfd-1" vertex="1">
          <mxGeometry x="290" y="415" width="80" height="70" as="geometry" />
        </mxCell>
        <mxCell id="tlitxY171CUbLuyldwfd-26" value="MongoDB&lt;div&gt;slave&lt;br&gt;&lt;/div&gt;" style="shape=cylinder3;whiteSpace=wrap;html=1;boundedLbl=1;backgroundOutline=1;size=15;" parent="tlitxY171CUbLuyldwfd-1" vertex="1">
          <mxGeometry x="420" y="415" width="80" height="70" as="geometry" />
        </mxCell>
        <mxCell id="0h-9pkooNRkqCB87skPo-0" value="" style="endArrow=classic;html=1;rounded=0;" edge="1" parent="tlitxY171CUbLuyldwfd-1" target="0h-9pkooNRkqCB87skPo-1">
          <mxGeometry width="50" height="50" relative="1" as="geometry">
            <mxPoint x="170" y="200" as="sourcePoint" />
            <mxPoint x="170" y="130" as="targetPoint" />
          </mxGeometry>
        </mxCell>
        <mxCell id="0h-9pkooNRkqCB87skPo-1" value="Redis" style="shape=cylinder3;whiteSpace=wrap;html=1;boundedLbl=1;backgroundOutline=1;size=15;" vertex="1" parent="tlitxY171CUbLuyldwfd-1">
          <mxGeometry x="140" y="70" width="60" height="58" as="geometry" />
        </mxCell>
        <mxCell id="0h-9pkooNRkqCB87skPo-5" value="" style="endArrow=classic;html=1;rounded=0;entryX=0.5;entryY=1;entryDx=0;entryDy=0;entryPerimeter=0;" edge="1" parent="tlitxY171CUbLuyldwfd-1" target="tlitxY171CUbLuyldwfd-24">
          <mxGeometry width="50" height="50" relative="1" as="geometry">
            <mxPoint x="395" y="460" as="sourcePoint" />
            <mxPoint x="410" y="450" as="targetPoint" />
          </mxGeometry>
        </mxCell>
        <mxCell id="0h-9pkooNRkqCB87skPo-6" value="" style="endArrow=classic;startArrow=classic;html=1;rounded=0;exitX=1.001;exitY=0.559;exitDx=0;exitDy=0;exitPerimeter=0;entryX=-0.009;entryY=0.573;entryDx=0;entryDy=0;entryPerimeter=0;" edge="1" parent="tlitxY171CUbLuyldwfd-1">
          <mxGeometry width="50" height="50" relative="1" as="geometry">
            <mxPoint x="370.0799999999999" y="459.13" as="sourcePoint" />
            <mxPoint x="419.28" y="460.11" as="targetPoint" />
          </mxGeometry>
        </mxCell>
        <mxCell id="0h-9pkooNRkqCB87skPo-9" value="" style="group" connectable="0" vertex="1" parent="tlitxY171CUbLuyldwfd-1">
          <mxGeometry x="130.79999999999993" y="420" width="49.200000000000045" height="40.110000000000014" as="geometry" />
        </mxCell>
        <mxCell id="0h-9pkooNRkqCB87skPo-7" value="" style="endArrow=classic;html=1;rounded=0;entryX=0.5;entryY=1;entryDx=0;entryDy=0;entryPerimeter=0;" edge="1" parent="0h-9pkooNRkqCB87skPo-9">
          <mxGeometry width="50" height="50" relative="1" as="geometry">
            <mxPoint x="24.920000000000073" y="40" as="sourcePoint" />
            <mxPoint x="24.920000000000073" as="targetPoint" />
          </mxGeometry>
        </mxCell>
        <mxCell id="0h-9pkooNRkqCB87skPo-8" value="" style="endArrow=classic;startArrow=classic;html=1;rounded=0;exitX=1.001;exitY=0.559;exitDx=0;exitDy=0;exitPerimeter=0;entryX=-0.009;entryY=0.573;entryDx=0;entryDy=0;entryPerimeter=0;" edge="1" parent="0h-9pkooNRkqCB87skPo-9">
          <mxGeometry width="50" height="50" relative="1" as="geometry">
            <mxPoint y="39.129999999999995" as="sourcePoint" />
            <mxPoint x="49.200000000000045" y="40.110000000000014" as="targetPoint" />
          </mxGeometry>
        </mxCell>
      </root>
    </mxGraphModel>
  </diagram>
  <diagram name="Схема 4. Горизонтальное масштабирование" id="FldJ5OAMGv4HEMniVSHD">
    <mxGraphModel grid="1" page="1" gridSize="10" guides="1" tooltips="1" connect="1" arrows="1" fold="1" pageScale="1" pageWidth="827" pageHeight="1169" math="0" shadow="0">
      <root>
        <mxCell id="X3j3Wk970I1sSi8oSK4s-0" />
        <mxCell id="X3j3Wk970I1sSi8oSK4s-1" parent="X3j3Wk970I1sSi8oSK4s-0" />
        <mxCell id="X3j3Wk970I1sSi8oSK4s-4" value="&lt;h1 style=&quot;margin-top: 0px;&quot;&gt;Схема 4.&lt;/h1&gt;&lt;div&gt;Горизонтальное&lt;/div&gt;&lt;div&gt;масштабирование&lt;/div&gt;" style="text;html=1;whiteSpace=wrap;overflow=hidden;rounded=0;" vertex="1" parent="X3j3Wk970I1sSi8oSK4s-1">
          <mxGeometry x="30" y="20" width="120" height="90" as="geometry" />
        </mxCell>
        <mxCell id="0bormxZuSVDYnpPpMYTY-62" value="" style="group" vertex="1" connectable="0" parent="X3j3Wk970I1sSi8oSK4s-1">
          <mxGeometry x="23" y="130" width="1120" height="710" as="geometry" />
        </mxCell>
        <mxCell id="0bormxZuSVDYnpPpMYTY-61" value="" style="endArrow=none;html=1;rounded=0;exitX=0.25;exitY=0;exitDx=0;exitDy=0;" edge="1" parent="0bormxZuSVDYnpPpMYTY-62" source="X3j3Wk970I1sSi8oSK4s-11">
          <mxGeometry width="50" height="50" relative="1" as="geometry">
            <mxPoint x="350" y="150" as="sourcePoint" />
            <mxPoint x="424" y="30" as="targetPoint" />
          </mxGeometry>
        </mxCell>
        <mxCell id="0bormxZuSVDYnpPpMYTY-53" value="" style="endArrow=none;html=1;rounded=0;exitX=0.5;exitY=0;exitDx=0;exitDy=0;" edge="1" parent="0bormxZuSVDYnpPpMYTY-62">
          <mxGeometry width="50" height="50" relative="1" as="geometry">
            <mxPoint x="460" y="60" as="sourcePoint" />
            <mxPoint x="460" y="30" as="targetPoint" />
          </mxGeometry>
        </mxCell>
        <mxCell id="X3j3Wk970I1sSi8oSK4s-11" value="pymongo-api" style="rounded=1;whiteSpace=wrap;html=1;" vertex="1" parent="0bormxZuSVDYnpPpMYTY-62">
          <mxGeometry x="394" y="180" width="120" height="60" as="geometry" />
        </mxCell>
        <mxCell id="X3j3Wk970I1sSi8oSK4s-2" value="" style="rounded=0;whiteSpace=wrap;html=1;" vertex="1" parent="0bormxZuSVDYnpPpMYTY-62">
          <mxGeometry x="840" y="350" width="230" height="180" as="geometry" />
        </mxCell>
        <mxCell id="X3j3Wk970I1sSi8oSK4s-3" value="" style="rounded=0;whiteSpace=wrap;html=1;" vertex="1" parent="0bormxZuSVDYnpPpMYTY-62">
          <mxGeometry x="600" y="350" width="230" height="180" as="geometry" />
        </mxCell>
        <mxCell id="X3j3Wk970I1sSi8oSK4s-5" value="" style="endArrow=classic;html=1;rounded=0;" edge="1" parent="0bormxZuSVDYnpPpMYTY-62">
          <mxGeometry width="50" height="50" relative="1" as="geometry">
            <mxPoint x="820" y="290" as="sourcePoint" />
            <mxPoint x="880" y="350" as="targetPoint" />
            <Array as="points">
              <mxPoint x="880" y="290" />
            </Array>
          </mxGeometry>
        </mxCell>
        <mxCell id="X3j3Wk970I1sSi8oSK4s-6" value="" style="endArrow=classic;html=1;rounded=0;" edge="1" parent="0bormxZuSVDYnpPpMYTY-62">
          <mxGeometry width="50" height="50" relative="1" as="geometry">
            <mxPoint x="820" y="290" as="sourcePoint" />
            <mxPoint x="760" y="350" as="targetPoint" />
            <Array as="points">
              <mxPoint x="760" y="290" />
            </Array>
          </mxGeometry>
        </mxCell>
        <mxCell id="X3j3Wk970I1sSi8oSK4s-7" value="" style="endArrow=none;html=1;rounded=0;entryX=0.5;entryY=1;entryDx=0;entryDy=0;entryPerimeter=0;" edge="1" parent="0bormxZuSVDYnpPpMYTY-62" target="X3j3Wk970I1sSi8oSK4s-13">
          <mxGeometry width="50" height="50" relative="1" as="geometry">
            <mxPoint x="820" y="290" as="sourcePoint" />
            <mxPoint x="910" y="220" as="targetPoint" />
          </mxGeometry>
        </mxCell>
        <mxCell id="X3j3Wk970I1sSi8oSK4s-8" value="MongoDB&lt;div&gt;master&lt;/div&gt;" style="shape=cylinder3;whiteSpace=wrap;html=1;boundedLbl=1;backgroundOutline=1;size=15;" vertex="1" parent="0bormxZuSVDYnpPpMYTY-62">
          <mxGeometry x="675" y="360" width="80" height="70" as="geometry" />
        </mxCell>
        <mxCell id="X3j3Wk970I1sSi8oSK4s-9" value="&lt;span style=&quot;color: rgba(0, 0, 0, 0.85); font-family: Menlo, &amp;quot;Ubuntu Mono&amp;quot;, consolas, source-code-pro, monospace; font-size: 14px; text-align: start; white-space: pre; background-color: rgb(245, 245, 245);&quot;&gt;shard1&lt;/span&gt;" style="text;html=1;align=center;verticalAlign=middle;whiteSpace=wrap;rounded=0;shadow=1;fillColor=#f5f5f5;fontColor=#333333;strokeColor=#666666;" vertex="1" parent="0bormxZuSVDYnpPpMYTY-62">
          <mxGeometry x="600" y="500" width="100" height="30" as="geometry" />
        </mxCell>
        <mxCell id="X3j3Wk970I1sSi8oSK4s-10" value="mongos_router" style="text;html=1;align=center;verticalAlign=middle;whiteSpace=wrap;rounded=0;shadow=1;fillColor=#f5f5f5;fontColor=#333333;strokeColor=#666666;" vertex="1" parent="0bormxZuSVDYnpPpMYTY-62">
          <mxGeometry x="770" y="138" width="100" height="30" as="geometry" />
        </mxCell>
        <mxCell id="X3j3Wk970I1sSi8oSK4s-12" style="edgeStyle=orthogonalEdgeStyle;rounded=0;orthogonalLoop=1;jettySize=auto;html=1;entryX=0;entryY=0.5;entryDx=0;entryDy=0;entryPerimeter=0;" edge="1" parent="0bormxZuSVDYnpPpMYTY-62">
          <mxGeometry relative="1" as="geometry">
            <mxPoint x="790" y="210" as="targetPoint" />
            <mxPoint x="580" y="210" as="sourcePoint" />
          </mxGeometry>
        </mxCell>
        <mxCell id="X3j3Wk970I1sSi8oSK4s-13" value="MongoDB" style="shape=cylinder3;whiteSpace=wrap;html=1;boundedLbl=1;backgroundOutline=1;size=15;" vertex="1" parent="0bormxZuSVDYnpPpMYTY-62">
          <mxGeometry x="790" y="170" width="60" height="80" as="geometry" />
        </mxCell>
        <mxCell id="X3j3Wk970I1sSi8oSK4s-14" value="&lt;span style=&quot;color: rgba(0, 0, 0, 0.85); font-family: Menlo, &amp;quot;Ubuntu Mono&amp;quot;, consolas, source-code-pro, monospace; font-size: 14px; text-align: start; white-space: pre; background-color: rgb(245, 245, 245);&quot;&gt;shard2&lt;/span&gt;" style="text;html=1;align=center;verticalAlign=middle;whiteSpace=wrap;rounded=0;shadow=1;fillColor=#f5f5f5;fontColor=#333333;strokeColor=#666666;" vertex="1" parent="0bormxZuSVDYnpPpMYTY-62">
          <mxGeometry x="970" y="500" width="100" height="30" as="geometry" />
        </mxCell>
        <mxCell id="X3j3Wk970I1sSi8oSK4s-15" value="&lt;span style=&quot;color: rgba(0, 0, 0, 0.85); font-family: Menlo, &amp;quot;Ubuntu Mono&amp;quot;, consolas, source-code-pro, monospace; font-size: 14px; text-align: start; white-space: pre; background-color: rgb(245, 245, 245);&quot;&gt;configSrv&lt;/span&gt;" style="text;html=1;align=center;verticalAlign=middle;whiteSpace=wrap;rounded=0;shadow=1;fillColor=#f5f5f5;fontColor=#333333;strokeColor=#666666;" vertex="1" parent="0bormxZuSVDYnpPpMYTY-62">
          <mxGeometry x="950" y="138" width="100" height="30" as="geometry" />
        </mxCell>
        <mxCell id="X3j3Wk970I1sSi8oSK4s-16" value="MongoDB" style="shape=cylinder3;whiteSpace=wrap;html=1;boundedLbl=1;backgroundOutline=1;size=15;" vertex="1" parent="0bormxZuSVDYnpPpMYTY-62">
          <mxGeometry x="970" y="170" width="60" height="80" as="geometry" />
        </mxCell>
        <mxCell id="X3j3Wk970I1sSi8oSK4s-17" value="" style="endArrow=classic;html=1;rounded=0;exitX=1;exitY=0.5;exitDx=0;exitDy=0;exitPerimeter=0;entryX=0;entryY=0.5;entryDx=0;entryDy=0;entryPerimeter=0;" edge="1" parent="0bormxZuSVDYnpPpMYTY-62" source="X3j3Wk970I1sSi8oSK4s-13" target="X3j3Wk970I1sSi8oSK4s-16">
          <mxGeometry width="50" height="50" relative="1" as="geometry">
            <mxPoint x="950" y="300" as="sourcePoint" />
            <mxPoint x="1000" y="250" as="targetPoint" />
          </mxGeometry>
        </mxCell>
        <mxCell id="X3j3Wk970I1sSi8oSK4s-18" value="" style="endArrow=none;html=1;rounded=0;" edge="1" parent="0bormxZuSVDYnpPpMYTY-62">
          <mxGeometry width="50" height="50" relative="1" as="geometry">
            <mxPoint x="760" y="530" as="sourcePoint" />
            <mxPoint x="760" y="590" as="targetPoint" />
          </mxGeometry>
        </mxCell>
        <mxCell id="X3j3Wk970I1sSi8oSK4s-19" value="" style="endArrow=none;html=1;rounded=0;entryX=0.174;entryY=0.998;entryDx=0;entryDy=0;entryPerimeter=0;" edge="1" parent="0bormxZuSVDYnpPpMYTY-62" target="X3j3Wk970I1sSi8oSK4s-2">
          <mxGeometry width="50" height="50" relative="1" as="geometry">
            <mxPoint x="880" y="590" as="sourcePoint" />
            <mxPoint x="1000" y="450" as="targetPoint" />
          </mxGeometry>
        </mxCell>
        <mxCell id="X3j3Wk970I1sSi8oSK4s-20" value="" style="endArrow=none;html=1;rounded=0;" edge="1" parent="0bormxZuSVDYnpPpMYTY-62">
          <mxGeometry width="50" height="50" relative="1" as="geometry">
            <mxPoint x="760" y="590" as="sourcePoint" />
            <mxPoint x="880" y="590" as="targetPoint" />
          </mxGeometry>
        </mxCell>
        <mxCell id="X3j3Wk970I1sSi8oSK4s-21" value="" style="endArrow=classic;html=1;rounded=0;entryX=0.5;entryY=1;entryDx=0;entryDy=0;entryPerimeter=0;" edge="1" parent="0bormxZuSVDYnpPpMYTY-62" target="X3j3Wk970I1sSi8oSK4s-16">
          <mxGeometry width="50" height="50" relative="1" as="geometry">
            <mxPoint x="810" y="590" as="sourcePoint" />
            <mxPoint x="1210" y="340" as="targetPoint" />
            <Array as="points">
              <mxPoint x="810" y="710" />
              <mxPoint x="1120" y="710" />
              <mxPoint x="1120" y="320" />
              <mxPoint x="1000" y="320" />
            </Array>
          </mxGeometry>
        </mxCell>
        <mxCell id="X3j3Wk970I1sSi8oSK4s-22" value="MongoDB&lt;div&gt;slave&lt;/div&gt;" style="shape=cylinder3;whiteSpace=wrap;html=1;boundedLbl=1;backgroundOutline=1;size=15;" vertex="1" parent="0bormxZuSVDYnpPpMYTY-62">
          <mxGeometry x="610" y="425" width="80" height="70" as="geometry" />
        </mxCell>
        <mxCell id="X3j3Wk970I1sSi8oSK4s-23" value="MongoDB&lt;div&gt;slave&lt;br&gt;&lt;/div&gt;" style="shape=cylinder3;whiteSpace=wrap;html=1;boundedLbl=1;backgroundOutline=1;size=15;" vertex="1" parent="0bormxZuSVDYnpPpMYTY-62">
          <mxGeometry x="740" y="428" width="80" height="70" as="geometry" />
        </mxCell>
        <mxCell id="X3j3Wk970I1sSi8oSK4s-24" value="MongoDB&lt;div&gt;master&lt;/div&gt;" style="shape=cylinder3;whiteSpace=wrap;html=1;boundedLbl=1;backgroundOutline=1;size=15;" vertex="1" parent="0bormxZuSVDYnpPpMYTY-62">
          <mxGeometry x="915" y="360" width="80" height="70" as="geometry" />
        </mxCell>
        <mxCell id="X3j3Wk970I1sSi8oSK4s-25" value="MongoDB&lt;div&gt;slave&lt;/div&gt;" style="shape=cylinder3;whiteSpace=wrap;html=1;boundedLbl=1;backgroundOutline=1;size=15;" vertex="1" parent="0bormxZuSVDYnpPpMYTY-62">
          <mxGeometry x="850" y="425" width="80" height="70" as="geometry" />
        </mxCell>
        <mxCell id="X3j3Wk970I1sSi8oSK4s-26" value="MongoDB&lt;div&gt;slave&lt;br&gt;&lt;/div&gt;" style="shape=cylinder3;whiteSpace=wrap;html=1;boundedLbl=1;backgroundOutline=1;size=15;" vertex="1" parent="0bormxZuSVDYnpPpMYTY-62">
          <mxGeometry x="980" y="425" width="80" height="70" as="geometry" />
        </mxCell>
        <mxCell id="X3j3Wk970I1sSi8oSK4s-27" value="" style="endArrow=classic;html=1;rounded=0;" edge="1" parent="0bormxZuSVDYnpPpMYTY-62" target="X3j3Wk970I1sSi8oSK4s-28">
          <mxGeometry width="50" height="50" relative="1" as="geometry">
            <mxPoint x="730" y="210" as="sourcePoint" />
            <mxPoint x="730" y="140" as="targetPoint" />
          </mxGeometry>
        </mxCell>
        <mxCell id="X3j3Wk970I1sSi8oSK4s-28" value="Redis" style="shape=cylinder3;whiteSpace=wrap;html=1;boundedLbl=1;backgroundOutline=1;size=15;" vertex="1" parent="0bormxZuSVDYnpPpMYTY-62">
          <mxGeometry x="700" y="80" width="60" height="58" as="geometry" />
        </mxCell>
        <mxCell id="X3j3Wk970I1sSi8oSK4s-29" value="" style="endArrow=classic;html=1;rounded=0;entryX=0.5;entryY=1;entryDx=0;entryDy=0;entryPerimeter=0;" edge="1" parent="0bormxZuSVDYnpPpMYTY-62" target="X3j3Wk970I1sSi8oSK4s-24">
          <mxGeometry width="50" height="50" relative="1" as="geometry">
            <mxPoint x="955" y="470" as="sourcePoint" />
            <mxPoint x="970" y="460" as="targetPoint" />
          </mxGeometry>
        </mxCell>
        <mxCell id="X3j3Wk970I1sSi8oSK4s-30" value="" style="endArrow=classic;startArrow=classic;html=1;rounded=0;exitX=1.001;exitY=0.559;exitDx=0;exitDy=0;exitPerimeter=0;entryX=-0.009;entryY=0.573;entryDx=0;entryDy=0;entryPerimeter=0;" edge="1" parent="0bormxZuSVDYnpPpMYTY-62">
          <mxGeometry width="50" height="50" relative="1" as="geometry">
            <mxPoint x="930.0799999999999" y="469.13" as="sourcePoint" />
            <mxPoint x="979.28" y="470.11" as="targetPoint" />
          </mxGeometry>
        </mxCell>
        <mxCell id="X3j3Wk970I1sSi8oSK4s-31" value="" style="group" connectable="0" vertex="1" parent="0bormxZuSVDYnpPpMYTY-62">
          <mxGeometry x="690.8" y="430" width="49.200000000000045" height="40.110000000000014" as="geometry" />
        </mxCell>
        <mxCell id="X3j3Wk970I1sSi8oSK4s-32" value="" style="endArrow=classic;html=1;rounded=0;entryX=0.5;entryY=1;entryDx=0;entryDy=0;entryPerimeter=0;" edge="1" parent="X3j3Wk970I1sSi8oSK4s-31">
          <mxGeometry width="50" height="50" relative="1" as="geometry">
            <mxPoint x="24.920000000000073" y="40" as="sourcePoint" />
            <mxPoint x="24.920000000000073" as="targetPoint" />
          </mxGeometry>
        </mxCell>
        <mxCell id="X3j3Wk970I1sSi8oSK4s-33" value="" style="endArrow=classic;startArrow=classic;html=1;rounded=0;exitX=1.001;exitY=0.559;exitDx=0;exitDy=0;exitPerimeter=0;entryX=-0.009;entryY=0.573;entryDx=0;entryDy=0;entryPerimeter=0;" edge="1" parent="X3j3Wk970I1sSi8oSK4s-31">
          <mxGeometry width="50" height="50" relative="1" as="geometry">
            <mxPoint y="39.129999999999995" as="sourcePoint" />
            <mxPoint x="49.200000000000045" y="40.110000000000014" as="targetPoint" />
          </mxGeometry>
        </mxCell>
        <mxCell id="0bormxZuSVDYnpPpMYTY-34" value="pymongo-api" style="rounded=1;whiteSpace=wrap;html=1;" vertex="1" parent="0bormxZuSVDYnpPpMYTY-62">
          <mxGeometry x="394" y="60" width="120" height="60" as="geometry" />
        </mxCell>
        <mxCell id="0bormxZuSVDYnpPpMYTY-35" value="" style="endArrow=none;html=1;rounded=0;exitX=1;exitY=0.5;exitDx=0;exitDy=0;" edge="1" parent="0bormxZuSVDYnpPpMYTY-62" source="0bormxZuSVDYnpPpMYTY-34">
          <mxGeometry width="50" height="50" relative="1" as="geometry">
            <mxPoint x="730" y="280" as="sourcePoint" />
            <mxPoint x="580" y="90" as="targetPoint" />
          </mxGeometry>
        </mxCell>
        <mxCell id="0bormxZuSVDYnpPpMYTY-36" value="" style="endArrow=none;html=1;rounded=0;" edge="1" parent="0bormxZuSVDYnpPpMYTY-62">
          <mxGeometry width="50" height="50" relative="1" as="geometry">
            <mxPoint x="580" y="90" as="sourcePoint" />
            <mxPoint x="580" y="210" as="targetPoint" />
          </mxGeometry>
        </mxCell>
        <mxCell id="0bormxZuSVDYnpPpMYTY-38" value="" style="endArrow=none;html=1;rounded=0;exitX=1;exitY=0.5;exitDx=0;exitDy=0;" edge="1" parent="0bormxZuSVDYnpPpMYTY-62" source="X3j3Wk970I1sSi8oSK4s-11">
          <mxGeometry width="50" height="50" relative="1" as="geometry">
            <mxPoint x="730" y="280" as="sourcePoint" />
            <mxPoint x="580" y="210" as="targetPoint" />
          </mxGeometry>
        </mxCell>
        <mxCell id="0bormxZuSVDYnpPpMYTY-39" value="User&lt;div&gt;&lt;br&gt;&lt;/div&gt;" style="shape=umlActor;verticalLabelPosition=bottom;verticalAlign=top;html=1;outlineConnect=0;" vertex="1" parent="0bormxZuSVDYnpPpMYTY-62">
          <mxGeometry y="108" width="30" height="60" as="geometry" />
        </mxCell>
        <mxCell id="0bormxZuSVDYnpPpMYTY-43" value="Сайт" style="rounded=1;whiteSpace=wrap;html=1;" vertex="1" parent="0bormxZuSVDYnpPpMYTY-62">
          <mxGeometry x="60" y="118" width="120" height="40" as="geometry" />
        </mxCell>
        <mxCell id="0bormxZuSVDYnpPpMYTY-44" value="" style="endArrow=classic;html=1;rounded=0;entryX=0;entryY=0.5;entryDx=0;entryDy=0;" edge="1" parent="0bormxZuSVDYnpPpMYTY-62" source="0bormxZuSVDYnpPpMYTY-39" target="0bormxZuSVDYnpPpMYTY-43">
          <mxGeometry width="50" height="50" relative="1" as="geometry">
            <mxPoint x="450" y="100" as="sourcePoint" />
            <mxPoint x="500" y="50" as="targetPoint" />
          </mxGeometry>
        </mxCell>
        <mxCell id="0bormxZuSVDYnpPpMYTY-45" value="API Gateway" style="rounded=1;whiteSpace=wrap;html=1;" vertex="1" parent="0bormxZuSVDYnpPpMYTY-62">
          <mxGeometry x="220" y="108" width="120" height="60" as="geometry" />
        </mxCell>
        <mxCell id="0bormxZuSVDYnpPpMYTY-46" value="" style="endArrow=classic;html=1;rounded=0;exitX=1;exitY=0.5;exitDx=0;exitDy=0;entryX=0;entryY=0.5;entryDx=0;entryDy=0;" edge="1" parent="0bormxZuSVDYnpPpMYTY-62" source="0bormxZuSVDYnpPpMYTY-43" target="0bormxZuSVDYnpPpMYTY-45">
          <mxGeometry width="50" height="50" relative="1" as="geometry">
            <mxPoint x="280" y="170" as="sourcePoint" />
            <mxPoint x="330" y="120" as="targetPoint" />
          </mxGeometry>
        </mxCell>
        <mxCell id="0bormxZuSVDYnpPpMYTY-47" value="consul_kv" style="rounded=1;whiteSpace=wrap;html=1;" vertex="1" parent="0bormxZuSVDYnpPpMYTY-62">
          <mxGeometry x="270" y="94" width="80" height="30" as="geometry" />
        </mxCell>
        <mxCell id="0bormxZuSVDYnpPpMYTY-48" value="Consul" style="rounded=1;whiteSpace=wrap;html=1;" vertex="1" parent="0bormxZuSVDYnpPpMYTY-62">
          <mxGeometry x="220" width="120" height="60" as="geometry" />
        </mxCell>
        <mxCell id="0bormxZuSVDYnpPpMYTY-49" value="" style="endArrow=classic;html=1;rounded=0;exitX=0.5;exitY=0;exitDx=0;exitDy=0;" edge="1" parent="0bormxZuSVDYnpPpMYTY-62" source="0bormxZuSVDYnpPpMYTY-47">
          <mxGeometry width="50" height="50" relative="1" as="geometry">
            <mxPoint x="260" y="110" as="sourcePoint" />
            <mxPoint x="310" y="60" as="targetPoint" />
          </mxGeometry>
        </mxCell>
        <mxCell id="0bormxZuSVDYnpPpMYTY-50" value="get a list of services" style="text;html=1;align=center;verticalAlign=middle;whiteSpace=wrap;rounded=0;shadow=0;fontSize=7;fillColor=default;" vertex="1" parent="0bormxZuSVDYnpPpMYTY-62">
          <mxGeometry x="275.5" y="77" width="75" height="10" as="geometry" />
        </mxCell>
        <mxCell id="0bormxZuSVDYnpPpMYTY-51" value="" style="endArrow=none;html=1;rounded=0;entryX=0;entryY=0.5;entryDx=0;entryDy=0;" edge="1" parent="0bormxZuSVDYnpPpMYTY-62" target="0bormxZuSVDYnpPpMYTY-34">
          <mxGeometry width="50" height="50" relative="1" as="geometry">
            <mxPoint x="370" y="90" as="sourcePoint" />
            <mxPoint x="360" y="80" as="targetPoint" />
          </mxGeometry>
        </mxCell>
        <mxCell id="0bormxZuSVDYnpPpMYTY-52" value="" style="endArrow=none;html=1;rounded=0;entryX=0;entryY=0.5;entryDx=0;entryDy=0;" edge="1" parent="0bormxZuSVDYnpPpMYTY-62" target="X3j3Wk970I1sSi8oSK4s-11">
          <mxGeometry width="50" height="50" relative="1" as="geometry">
            <mxPoint x="370" y="210" as="sourcePoint" />
            <mxPoint x="360" y="80" as="targetPoint" />
          </mxGeometry>
        </mxCell>
        <mxCell id="0bormxZuSVDYnpPpMYTY-55" value="" style="endArrow=none;html=1;rounded=0;" edge="1" parent="0bormxZuSVDYnpPpMYTY-62">
          <mxGeometry width="50" height="50" relative="1" as="geometry">
            <mxPoint x="370" y="90" as="sourcePoint" />
            <mxPoint x="370" y="210" as="targetPoint" />
          </mxGeometry>
        </mxCell>
        <mxCell id="0bormxZuSVDYnpPpMYTY-56" value="" style="endArrow=none;html=1;rounded=0;exitX=1;exitY=0.5;exitDx=0;exitDy=0;" edge="1" parent="0bormxZuSVDYnpPpMYTY-62" source="0bormxZuSVDYnpPpMYTY-45">
          <mxGeometry width="50" height="50" relative="1" as="geometry">
            <mxPoint x="500" y="170" as="sourcePoint" />
            <mxPoint x="370" y="138" as="targetPoint" />
          </mxGeometry>
        </mxCell>
        <mxCell id="0bormxZuSVDYnpPpMYTY-60" value="" style="endArrow=classic;html=1;rounded=0;" edge="1" parent="0bormxZuSVDYnpPpMYTY-62">
          <mxGeometry width="50" height="50" relative="1" as="geometry">
            <mxPoint x="460" y="30" as="sourcePoint" />
            <mxPoint x="340" y="30" as="targetPoint" />
          </mxGeometry>
        </mxCell>
        <mxCell id="0bormxZuSVDYnpPpMYTY-57" value="register" style="text;html=1;align=center;verticalAlign=middle;whiteSpace=wrap;rounded=0;shadow=0;fontSize=7;fillColor=default;" vertex="1" parent="0bormxZuSVDYnpPpMYTY-62">
          <mxGeometry x="380" y="25" width="35" height="10" as="geometry" />
        </mxCell>
      </root>
    </mxGraphModel>
  </diagram>
</mxfile>
